<svg height="512" viewBox="0 0 512 512" width="512" xmlns="http://www.w3.org/2000/svg"><g id="Flat"><rect fill="#90d2ed" height="320" rx="32" width="464" x="24" y="104"/><path d="m24 376h464a0 0 0 0 1 0 0v16a32 32 0 0 1 -32 32h-400a32 32 0 0 1 -32-32v-16a0 0 0 0 1 0 0z" fill="#37a4c9"/><path d="m64 136h384a8 8 0 0 1 8 8v232a0 0 0 0 1 0 0h-400a0 0 0 0 1 0 0v-232a8 8 0 0 1 8-8z" fill="#a8c92a"/><circle cx="256" cy="400" fill="#2d80b9" r="8"/><path d="m224 424v32a32 32 0 0 1 -32 32h128a32 32 0 0 1 -32-32v-32z" fill="#90d2ed"/><path d="m112 72h288v304h-288z" fill="#f4e2a0"/><path d="m144 288h32v88h-32z" fill="#ee8c04"/><path d="m272 296h32v80h-32z" fill="#ea4042"/><path d="m336 256h32v120h-32z" fill="#349f66"/><path d="m208 264h32v112h-32z" fill="#90d2ed"/><g fill="#f4c433"><path d="m136 96h48v16h-48z"/><path d="m136 128h48v16h-48z"/><path d="m176 160h48v16h-48z"/><path d="m240 160h80v16h-80z"/><path d="m336 160h32v16h-32z"/><path d="m136 192h48v16h-48z"/><path d="m200 192h80v16h-80z"/><path d="m296 192h72v16h-72z"/></g><path d="m488 104v-32h-18.74a48.15561 48.15561 0 0 0 -1.94-4.69l13.25-13.25-22.63-22.63-13.25 13.25a48.168 48.168 0 0 0 -4.69-1.94v-18.74h-32v18.74a48.168 48.168 0 0 0 -4.69 1.94l-13.25-13.25-22.63 22.63 13.25 13.25a48.15561 48.15561 0 0 0 -1.94 4.69h-18.74v32h18.74a48.168 48.168 0 0 0 1.94 4.69l-13.25 13.25 22.63 22.63 13.25-13.25a48.168 48.168 0 0 0 4.69 1.94v18.74h32v-18.74a48.168 48.168 0 0 0 4.69-1.94l13.25 13.25 22.63-22.63-13.25-13.25a48.168 48.168 0 0 0 1.94-4.69zm-64 0a16 16 0 1 1 16-16 15.99559 15.99559 0 0 1 -16 16z" fill="#cadae6"/></g></svg>