<svg height="512" viewBox="0 0 512 512" width="512" xmlns="http://www.w3.org/2000/svg"><g id="Flat"><rect fill="#90d2ed" height="32" rx="16" width="232" x="24" y="456"/><rect fill="#37a4c9" height="32" rx="16" width="232" x="224" y="456"/><path d="m485.28 258.34-27.26 184a15.99171 15.99171 0 0 1 -15.82 13.66h-263.65a15.996 15.996 0 0 1 -15.83-18.34l27.26-184a15.99169 15.99169 0 0 1 15.82-13.66h263.65a15.996 15.996 0 0 1 15.83 18.34z" fill="#90d2ed"/><path d="m455.82007 258.34-27.26 184a15.99181 15.99181 0 0 1 -15.82007 13.66h-234.19a15.996 15.996 0 0 1 -15.83-18.34l27.26-184a15.99169 15.99169 0 0 1 15.82-13.66h234.2a15.98884 15.98884 0 0 1 15.82007 18.34z" fill="#a8c92a"/><path d="m328 216v-192h-304v192h200l64 64v-64z" fill="#f4e2a0"/><g fill="#f4c433"><path d="m80 48h32v16h-32z"/><path d="m128 48h48v16h-48z"/><path d="m192 48h112v16h-112z"/><path d="m48 80h96v16h-96z"/><path d="m160 80h80v16h-80z"/><path d="m256 80h48v16h-48z"/><path d="m192 112h112v16h-112z"/><path d="m96 112h80v16h-80z"/><path d="m48 112h32v16h-32z"/><path d="m48 144h64v16h-64z"/><path d="m128 144h32v16h-32z"/><path d="m176 144h128v16h-128z"/><path d="m48 176h48v16h-48z"/><path d="m112 176h96v16h-96z"/></g><path d="m175.41 352h40.59v-24h16v24h32a7.9978 7.9978 0 0 1 8 8v32h-16v-24h-82.96z" fill="#f4e2a0"/><path d="m368 296v-16h-24v-40h-16v48a7.99977 7.99977 0 0 0 8 8z" fill="#f4e2a0"/><path d="m441.94 352h-49.94v24h-16v-24h-40v-16h108.31z" fill="#f4e2a0"/><path d="m320 368a24 24 0 1 1 24-24 24.02687 24.02687 0 0 1 -24 24zm0-32a8 8 0 1 0 8 8 8.00917 8.00917 0 0 0 -8-8z" fill="#f4c433"/><path d="m384 312a24 24 0 1 1 24-24 24.02687 24.02687 0 0 1 -24 24zm0-32a8 8 0 1 0 8 8 8.00917 8.00917 0 0 0 -8-8z" fill="#f4c433"/><path d="m264 432a24 24 0 1 1 24-24 24.02687 24.02687 0 0 1 -24 24zm0-32a8 8 0 1 0 8 8 8.00917 8.00917 0 0 0 -8-8z" fill="#f4c433"/><path d="m224 336a24 24 0 1 1 24-24 24.02687 24.02687 0 0 1 -24 24zm0-32a8 8 0 1 0 8 8 8.00917 8.00917 0 0 0 -8-8z" fill="#f4c433"/><path d="m384 416a24 24 0 1 1 24-24 24.02687 24.02687 0 0 1 -24 24zm0-32a8 8 0 1 0 8 8 8.00917 8.00917 0 0 0 -8-8z" fill="#f4c433"/></g></svg>