<svg height="512" viewBox="0 0 512 512" width="512" xmlns="http://www.w3.org/2000/svg"><g id="Flat"><path d="m488 304a63.99511 63.99511 0 0 1 -64 64h-328a71.99672 71.99672 0 0 1 -19.26-141.37 128.01292 128.01292 0 1 1 251.23-37.22 55.79491 55.79491 0 0 1 15.84009-4.81 56.68868 56.68868 0 0 1 8.18991-.6 55.99742 55.99742 0 0 1 56 56h16a63.99508 63.99508 0 0 1 64 64z" fill="#92d4ef"/><path d="m76.74 226.63a127.39 127.39 0 0 0 11.26 27.39l-13.99 7.76a142.75894 142.75894 0 0 1 -12.1599-29.16 72.11665 72.11665 0 0 1 14.8899-5.99z" fill="#37a6cb"/><path d="m344 192a144.72631 144.72631 0 0 1 -2.53 26.98l-15.72-2.98a129.1409 129.1409 0 0 0 2.25-24c0-.87-.02-1.73-.03-2.59a55.79491 55.79491 0 0 1 15.84009-4.81q.19479 3.675.18991 7.4z" fill="#37a6cb"/><path d="m80 400h64v48h-64z" fill="#ea4042"/><path d="m176 328h64v120h-64z" fill="#b28ec1"/><path d="m272 344h64v104h-64z" fill="#f4e2a0"/><path d="m368 296h64v152h-64z" fill="#a8c92a"/><path d="m453.65991 173.66-29.65991 29.66-114.34009 114.34a8.01757 8.01757 0 0 1 -9.24 1.5l-91.31991-45.66-91.98 76.65-10.24-12.3 96-80a8.0137 8.0137 0 0 1 8.70008-1.01l90.83984 45.43 110.26001-110.27 29.66016-29.66z" fill="#a8c92a"/><path d="m424 203.32v-11.32h-11.32l29.66-29.66 11.32 11.32z" fill="#68be40"/><path d="m456 216h-16v-40h-40v-16h48a7.99977 7.99977 0 0 1 8 8z" fill="#a8c92a"/><path d="m56 440h400v16h-400z" fill="#cadae6"/></g></svg>