<svg height="512" viewBox="0 0 512 512" width="512" xmlns="http://www.w3.org/2000/svg"><g id="Flat"><path d="m416 200a175.9704 175.9704 0 1 1 -69.06006-139.8 176.00273 176.00273 0 0 1 69.06006 139.8z" fill="#68be40"/><path d="m416 200a176.0101 176.0101 0 0 1 -315.8 106.94 176.0078 176.0078 0 0 0 246.74-246.74 175.73893 175.73893 0 0 1 69.06 139.8z" fill="#55a652"/><path d="m368 488h-136a16 16 0 0 1 -16-16 16 16 0 0 1 16-16h136z" fill="#92d4ef"/><rect fill="#37a4c9" height="32" rx="16" width="136" x="320" y="456"/><path d="m441.75377 456h-103.50757a8 8 0 0 1 -7.76114-9.94029l20-80a8 8 0 0 1 7.76114-6.05971h103.50757a8 8 0 0 1 7.76114 9.94029l-20 80a8 8 0 0 1 -7.76114 6.05971z" fill="#92d4ef"/><path d="m409.75377 456h-71.50757a8 8 0 0 1 -7.76114-9.94029l20-80a8 8 0 0 1 7.76114-6.05971h71.50757a8 8 0 0 1 7.76114 9.94029l-20 80a8 8 0 0 1 -7.76114 6.05971z" fill="#a8c92a"/><path d="m240 16c-101.458 0-184 82.542-184 184s82.542 184 184 184 184-82.542 184-184-82.542-184-184-184zm97.02783 176a229.19263 229.19263 0 0 0 -8.41894-53.85864 208.32968 208.32968 0 0 1 70.8247 53.85864zm-16.00537 0h-73.02246v-73.022a210.93966 210.93966 0 0 1 61.55029 11.47229 210.94056 210.94056 0 0 1 11.47217 61.54971zm-73.02246-89.02747v-62.40661a208.33164 208.33164 0 0 1 53.85938 70.82586 229.20432 229.20432 0 0 0 -53.85938-8.41925zm-16-62.40661v62.40661a229.20432 229.20432 0 0 0 -53.85938 8.41925 208.33164 208.33164 0 0 1 53.85938-70.82586zm0 78.41211v73.02197h-73.02246a210.94056 210.94056 0 0 1 11.47217-61.54968 210.93966 210.93966 0 0 1 61.55029-11.47232zm-89.02783 73.02197h-62.40576a208.32968 208.32968 0 0 1 70.8247-53.85864 229.19263 229.19263 0 0 0 -8.41894 53.85864zm0 16a229.19263 229.19263 0 0 0 8.41894 53.85864 208.32968 208.32968 0 0 1 -70.8247-53.85864zm16.00537 0h73.02246v73.022a210.93966 210.93966 0 0 1 -61.55029-11.47229 210.94056 210.94056 0 0 1 -11.47217-61.54971zm73.02246 89.02747v62.40661a208.33164 208.33164 0 0 1 -53.85938-70.82586 229.20432 229.20432 0 0 0 53.85938 8.41925zm16 62.40661v-62.40661a229.20432 229.20432 0 0 0 53.85938-8.41925 208.33164 208.33164 0 0 1 -53.85938 70.82586zm0-78.41211v-73.02197h73.02246a210.94056 210.94056 0 0 1 -11.47217 61.54968 210.93966 210.93966 0 0 1 -61.55029 11.47232zm89.02783-73.02197h62.40576a208.32968 208.32968 0 0 1 -70.8247 53.85864 229.19263 229.19263 0 0 0 8.41894-53.85864zm69.17993-32.50226a222.15861 222.15861 0 0 0 -66.20776-49.56854q-8.83008-4.33521-18.0498-7.87854-3.54529-9.20508-7.87891-18.05017a222.15435 222.15435 0 0 0 -49.56929-66.20838 168.37834 168.37834 0 0 1 141.70576 141.70563zm-190.70971-141.70563a222.15435 222.15435 0 0 0 -49.56934 66.20838q-4.33521 8.83008-7.87891 18.05017-9.2047 3.545-18.0498 7.87854a222.15861 222.15861 0 0 0 -66.20776 49.56854 168.37834 168.37834 0 0 1 141.70581-141.70563zm-141.70581 190.71015a222.15861 222.15861 0 0 0 66.20776 49.56854q8.83008 4.33521 18.0498 7.87854 3.5453 9.20508 7.87891 18.05017a222.15435 222.15435 0 0 0 49.56934 66.20838 168.37834 168.37834 0 0 1 -141.70581-141.70563zm190.70976 141.70563a222.15435 222.15435 0 0 0 49.56934-66.20838q4.33521-8.83008 7.87891-18.05017 9.20471-3.545 18.0498-7.87854a222.15861 222.15861 0 0 0 66.20776-49.56854 168.37834 168.37834 0 0 1 -141.70581 141.70563z" fill="#a8c92a"/><path d="m152 112h176v176h-176z" fill="#f4e2a0"/><path d="m200 224h-16v16h-32v16h72v-16h-24z" fill="#f4c433"/><path d="m192 232a24 24 0 1 1 24-24 24.02718 24.02718 0 0 1 -24 24zm0-32a8 8 0 1 0 8 8 8.00917 8.00917 0 0 0 -8-8z" fill="#f5ad02"/><path d="m240 272a24 24 0 1 1 24-24 24.02718 24.02718 0 0 1 -24 24zm0-32a8 8 0 1 0 8 8 8.00917 8.00917 0 0 0 -8-8z" fill="#f5ad02"/><path d="m240 144h-16v16h24a8.00008 8.00008 0 0 0 8-8v-40h-16z" fill="#f4c433"/><path d="m296 192h32v16h-32z" fill="#f4c433"/><path d="m40 360h80v128h-80z" fill="#90d2ed"/><circle cx="80" cy="464" fill="#37a4c9" r="8"/><g fill="#f5ad02"><path d="m109.65723 437.65674-11.31446-11.31348 69.65723-69.65674v-68.68652h16v72a8.00035 8.00035 0 0 1 -2.34277 5.65674z"/><path d="m354.794 414.07422-56-48a7.99987 7.99987 0 0 1 -2.794-6.07422v-72h16v68.32031l53.20605 45.60547z"/><path d="m208 176a24 24 0 1 1 24-24 24.02718 24.02718 0 0 1 -24 24zm0-32a8 8 0 1 0 8 8 8.00917 8.00917 0 0 0 -8-8z"/><path d="m280 224a24 24 0 1 1 24-24 24.02718 24.02718 0 0 1 -24 24zm0-32a8 8 0 1 0 8 8 8.00917 8.00917 0 0 0 -8-8z"/></g><path d="m328 296h-176a8.00008 8.00008 0 0 1 -8-8v-176a8.00008 8.00008 0 0 1 8-8h176a8.00008 8.00008 0 0 1 8 8v176a8.00008 8.00008 0 0 1 -8 8zm-168-16h160v-160h-160z" fill="#cadae6"/></g></svg>