<svg height="512" viewBox="0 0 512 512" width="512" xmlns="http://www.w3.org/2000/svg"><g id="Flat"><path d="m24 336 96 40 96-40-96-40z" fill="#2d80b9"/><path d="m120 488-96-40v-112l96 40 96-40v112z" fill="#90d2ed"/><path d="m120 376v112l96-40v-112z" fill="#37a4c9"/><path d="m296 336 96 40 96-40-96-40z" fill="#2d80b9"/><path d="m392 488-96-40v-112l96 40 96-40v112z" fill="#90d2ed"/><path d="m392 376v112l96-40v-112z" fill="#37a4c9"/><path d="m184 384h144v16h-144z" fill="#2d80b9"/><circle cx="120" cy="152" fill="#f4e2a0" r="96"/><path d="m136 144h-32a8.00917 8.00917 0 0 1 -8-8v-8a8.00917 8.00917 0 0 1 8-8h32a8.00917 8.00917 0 0 1 8 8h16a24.02718 24.02718 0 0 0 -24-24h-8v-16h-16v16h-8a24.02718 24.02718 0 0 0 -24 24v8a24.02718 24.02718 0 0 0 24 24h32a8.00917 8.00917 0 0 1 8 8v8a8.00917 8.00917 0 0 1 -8 8h-32a8.00917 8.00917 0 0 1 -8-8h-16a24.02718 24.02718 0 0 0 24 24h8v16h16v-16h8a24.02718 24.02718 0 0 0 24-24v-8a24.02718 24.02718 0 0 0 -24-24z" fill="#f4c433"/><path d="m40 256h16v16h-16z" fill="#ee8c04"/><path d="m40 288h16v16h-16z" fill="#ee8c04"/><path d="m112 248h16v24h-16z" fill="#ee8c04"/><path d="m184 216h16v32h-16z" fill="#ee8c04"/><path d="m184 264h16v16h-16z" fill="#ee8c04"/><path d="m120 256a104 104 0 1 1 104-104 104.11791 104.11791 0 0 1 -104 104zm0-192a88 88 0 1 0 88 88 88.09957 88.09957 0 0 0 -88-88z" fill="#f4c433"/><circle cx="392" cy="120" fill="#f4e2a0" r="96"/><path d="m408 112h-32a8.00917 8.00917 0 0 1 -8-8v-8a8.00917 8.00917 0 0 1 8-8h32a8.00917 8.00917 0 0 1 8 8h16a24.02718 24.02718 0 0 0 -24-24h-8v-16h-16v16h-8a24.02718 24.02718 0 0 0 -24 24v8a24.02718 24.02718 0 0 0 24 24h32a8.00917 8.00917 0 0 1 8 8v8a8.00917 8.00917 0 0 1 -8 8h-32a8.00917 8.00917 0 0 1 -8-8h-16a24.02718 24.02718 0 0 0 24 24h8v16h16v-16h8a24.02718 24.02718 0 0 0 24-24v-8a24.02718 24.02718 0 0 0 -24-24z" fill="#f4c433"/><g fill="#ee8c04"><path d="m456 224h16v32h-16z"/><path d="m456 272h16v16h-16z"/><path d="m384 264h16v16h-16z"/><path d="m384 216h16v32h-16z"/><path d="m312 184h16v32h-16z"/><path d="m312 232h16v16h-16z"/></g><path d="m392 224a104 104 0 1 1 104-104 104.11791 104.11791 0 0 1 -104 104zm0-192a88 88 0 1 0 88 88 88.09957 88.09957 0 0 0 -88-88z" fill="#f4c433"/></g></svg>