<svg height="512" viewBox="0 0 512 512" width="512" xmlns="http://www.w3.org/2000/svg"><g id="Flat"><path d="m88 168h400v240h-400z" fill="#90d2ed"/><path d="m128 216h88v64h-88z" fill="#f4e2a0"/><path d="m200 248v32h-16v-24h-16v24h-16v-24h-24v-16h64a7.99778 7.99778 0 0 1 8 8z" fill="#f4c433"/><g fill="#37a4c9"><path d="m120 304h48v16h-48z"/><path d="m184 304h48v16h-48z"/><path d="m248 304h48v16h-48z"/><path d="m120 336h64v16h-64z"/><path d="m200 336h64v16h-64z"/><path d="m120 368h48v16h-48z"/><path d="m184 368h32v16h-32z"/></g><path d="m328 336 24 40h104l-24-40z" fill="#cadae6"/><path d="m272 208h96v32h-96z" fill="#a8c92a"/><circle cx="424" cy="224" fill="#a8c92a" r="24"/><path d="m488 136h-80l-64 64v-64h-144v-112h288z" fill="#f4e2a0"/><path d="m266.928 63.215-13.856-8-5.072 8.785-5.072-8.785-13.856 8 5.072 8.785h-10.144v16h10.144l-5.072 8.785 13.856 8 5.072-8.785 5.072 8.785 13.856-8-5.072-8.785h10.144v-16h-10.144z" fill="#394f5a"/><path d="m330.928 63.215-13.856-8-5.072 8.785-5.072-8.785-13.856 8 5.072 8.785h-10.144v16h10.144l-5.072 8.785 13.856 8 5.072-8.785 5.072 8.785 13.856-8-5.072-8.785h10.144v-16h-10.144z" fill="#394f5a"/><path d="m394.928 63.215-13.856-8-5.072 8.785-5.072-8.785-13.856 8 5.072 8.785h-10.144v16h10.144l-5.072 8.785 13.856 8 5.072-8.785 5.072 8.785 13.856-8-5.072-8.785h10.144v-16h-10.144z" fill="#394f5a"/><path d="m464 72h-10.144l5.072-8.785-13.856-8-5.072 8.785-5.072-8.785-13.856 8 5.072 8.785h-10.144v16h10.144l-5.072 8.785 13.856 8 5.072-8.785 5.072 8.785 13.856-8-5.072-8.785h10.144z" fill="#394f5a"/><path d="m120 368v65.01a32.02437 32.02437 0 0 1 -11.51 24.59l-36.49 30.4-36.49-30.4a32.02437 32.02437 0 0 1 -11.51-24.59v-65.01a30 30 0 0 0 48 0 30 30 0 0 0 48 0z" fill="#59b65d"/><path d="m120 368v65.01a32.02437 32.02437 0 0 1 -11.51 24.59l-36.49 30.4v-120a30 30 0 0 0 48 0z" fill="#55a652"/><path d="m96 380v53.01a7.99645 7.99645 0 0 1 -2.88 6.1499l-21.12 17.6001-21.12-17.6001a7.99645 7.99645 0 0 1 -2.88-6.1499v-53.01a29.8225 29.8225 0 0 0 24-12 29.8225 29.8225 0 0 0 24 12z" fill="#8ebe65"/></g></svg>