<svg height="512" viewBox="0 0 512 512" width="512" xmlns="http://www.w3.org/2000/svg"><g id="Flat"><path d="m176 272-32 32-22.06-22.06006a115.828 115.828 0 0 1 -32.82-65.93994 113.59143 113.59143 0 0 1 -1.12-16h48a77.26653 77.26653 0 0 0 22.63 54.63z" fill="#f4e2a0"/><path d="m72 88h96v112h-96z" fill="#ea4042"/><path d="m137.68 216h-48.56a113.59143 113.59143 0 0 1 -1.12-16h48a76.9121 76.9121 0 0 0 1.68 16z" fill="#f4c433"/><path d="m64 104h8a0 0 0 0 1 0 0v80a0 0 0 0 1 0 0h-8a40 40 0 0 1 -40-40 40 40 0 0 1 40-40z" fill="#f4e2a0"/><path d="m288 40v208a16 16 0 1 1 -32 0 63.98713 63.98713 0 0 0 -64-64h-24v-80h24a63.98234 63.98234 0 0 0 64-64 16 16 0 0 1 32 0z" fill="#90d2ed"/><path d="m256 120v128a63.74285 63.74285 0 0 0 -16-42.34v-85.66z" fill="#37a4c9"/><path d="m288 120h8a24 24 0 0 1 24 24 24 24 0 0 1 -24 24h-8a0 0 0 0 1 0 0v-48a0 0 0 0 1 0 0z" fill="#f4e2a0"/><path d="m56 440h64v48h-64z" fill="#ea4042"/><path d="m168 376h64v112h-64z" fill="#b28ec1"/><path d="m280 440h64v48h-64z" fill="#f4e2a0"/><path d="m392 376h64v112h-64z" fill="#a8c92a"/><path d="m24 480h464v16h-464z" fill="#cadae6"/><path d="m493.65991 245.66-29.65991 29.66007-146.34009 146.33984a8.01478 8.01478 0 0 1 -11.31982 0l-106.34009-106.34985-106.34 106.34985-11.32-11.31991 112-112a8.01514 8.01514 0 0 1 11.31994 0l106.34006 106.34994 140.67993-140.68994 29.66016-29.66z" fill="#a8c92a"/><path d="m464 275.32v-11.32h-11.32l29.66-29.66 11.32 11.32z" fill="#68be40"/><path d="m496 280h-16v-32h-32v-16h40a7.99977 7.99977 0 0 1 8 8z" fill="#a8c92a"/></g></svg>