<svg height="512" viewBox="0 0 512 512" width="512" xmlns="http://www.w3.org/2000/svg"><g id="Flat"><path d="m176 352h160v48h-160z" fill="#f4e2a0"/><circle cx="256" cy="208" fill="#f4c433" r="136"/><circle cx="256" cy="208" fill="#f4e2a0" r="112"/><path d="m304 184v-4a36.04061 36.04061 0 0 0 -36-36h-4v-16h-16v16h-4a36 36 0 0 0 0 72h24a20 20 0 0 1 0 40h-24a20.02292 20.02292 0 0 1 -20-20v-4h-16v4a36.04061 36.04061 0 0 0 36 36h4v16h16v-16h4a36 36 0 0 0 0-72h-24a20 20 0 0 1 0-40h24a20.02292 20.02292 0 0 1 20 20v4z" fill="#f4c433"/><rect fill="#90d2ed" height="32" rx="16" width="208" x="152" y="328"/><rect fill="#90d2ed" height="32" rx="16" width="208" x="152" y="392"/><path d="m176 424 32 32h96l32-32z" fill="#f4e2a0"/><path d="m224 456h64a0 0 0 0 1 0 0 32 32 0 0 1 -32 32 32 32 0 0 1 -32-32 0 0 0 0 1 0 0z" fill="#37a4c9"/><g fill="#f4e2a0"><path d="m248 16h16v32h-16z"/><path d="m375.764 80.236h32v16h-32z" transform="matrix(.707 -.707 .707 .707 52.353 302.863)"/><path d="m432 216h32v16h-32z"/><path d="m48 216h32v16h-32z"/><path d="m112.236 72.236h16v32h-16z" transform="matrix(.707 -.707 .707 .707 -27.176 110.863)"/></g></g></svg>