<svg height="512" viewBox="0 0 512 512" width="512" xmlns="http://www.w3.org/2000/svg"><g id="Flat"><rect fill="#37a4c9" height="464" rx="16" width="256" x="24" y="24"/><path d="m48 464v-416h48a24 24 0 0 0 24 24h64a24 24 0 0 0 24-24h48v416z" fill="#90d2ed"/><path d="m136 40h32v16h-32z" fill="#2d80b9"/><circle cx="184" cy="48" fill="#2d80b9" r="8"/><path d="m24 56h24v16h-24z" fill="#2d80b9"/><path d="m256 56h24v16h-24z" fill="#2d80b9"/><path d="m24 440h24v16h-24z" fill="#2d80b9"/><path d="m256 440h24v16h-24z" fill="#2d80b9"/><path d="m368 120a32 32 0 0 1 32-32h32v64h-64z" fill="#9c6342"/><path d="m420.946 424h-89.892a64 64 0 0 1 -63.1962-74.11139l11.66353-72.89705a104.546 104.546 0 0 1 56.47861-76.99156h.00006 80a104.54607 104.54607 0 0 1 56.4786 76.99155l11.66353 72.89705a64 64 0 0 1 -63.19613 74.1114z" fill="#b37d4d"/><rect fill="#394f5a" height="32" rx="16" width="96" x="328" y="168"/><path d="m448 104v32a32.004 32.004 0 0 1 -32 32h-80a32.004 32.004 0 0 1 -32-32v-16a32 32 0 1 1 64 0 24 24 0 0 0 48 0v-16a16 16 0 0 1 32 0z" fill="#b37d4d"/><path d="m376 168h-35.75a47.75231 47.75231 0 0 1 -12.25-32v-8h16v8a32.036 32.036 0 0 0 32 32z" fill="#9c6342"/><path d="m104 232h160v96h-160z" fill="#34a166"/><path d="m264 232h48v96h-48z" fill="#067a4b"/><path d="m280 272h16v56h-16z" fill="#056940"/><circle cx="232" cy="280" fill="#68bb9e" r="8"/><circle cx="136" cy="280" fill="#68bb9e" r="8"/><path d="m104 232h160v24h-160z" fill="#008f55"/><path d="m104 304h160v24h-160z" fill="#008f55"/><path d="m168 232h32v96h-32z" fill="#f6e4a2"/><path d="m80 328h160v96h-160z" fill="#008f55"/><path d="m240 328h48v96h-48z" fill="#056940"/><path d="m256 368h16v56h-16z" fill="#045936"/><circle cx="208" cy="376" fill="#68bb9e" r="8"/><circle cx="112" cy="376" fill="#68bb9e" r="8"/><path d="m80 328h160v24h-160z" fill="#017a4a"/><path d="m80 400h160v24h-160z" fill="#017a4a"/><path d="m144 328h32v96h-32z" fill="#fade66"/><g fill="#f6e4a2"><path d="m264 392h48v32h-48z"/><path d="m264 360h48v32h-48z"/><path d="m312 392h48v32h-48z"/><path d="m312 360h48v32h-48z"/><path d="m360 392h48v32h-48z"/><path d="m360 360h48v32h-48z"/><path d="m360 328h48v32h-48z"/><path d="m408 392h48v32h-48z"/><path d="m408 360h48v32h-48z"/><path d="m408 328h48v32h-48z"/><path d="m360 296h48v32h-48z"/></g><path d="m456 392v32h-48v-8h40v-24z" fill="#f4c433"/><path d="m408 392v32h-48v-8h40v-24z" fill="#f4c433"/><path d="m456 360v32h-48v-8h40v-24z" fill="#f4c433"/><path d="m408 360v32h-48v-8h40v-24z" fill="#f4c433"/><path d="m456 328v32h-48v-8h40v-24z" fill="#f4c433"/><path d="m408 328v32h-48v-8h40v-24z" fill="#f4c433"/><path d="m408 296v32h-48v-8h40v-24z" fill="#f4c433"/><path d="m360 392v32h-48v-8h40v-24z" fill="#f4c433"/><path d="m312 392v32h-48v-8h40v-24z" fill="#f4c433"/><path d="m360 360v32h-48v-8h40v-24z" fill="#f4c433"/><path d="m312 360v32h-48v-8h40v-24z" fill="#f4c433"/><circle cx="464" cy="400" fill="#f6e4a2" r="24"/><path d="m464 432a32 32 0 1 1 32-32 32.03635 32.03635 0 0 1 -32 32zm0-48a16 16 0 1 0 16 16 16.01833 16.01833 0 0 0 -16-16z" fill="#f4c433"/></g></svg>