<svg height="512" viewBox="0 0 512 512" width="512" xmlns="http://www.w3.org/2000/svg"><g id="Flat"><path d="m408 256a151.8985 151.8985 0 1 1 -1.89014-24 151.53218 151.53218 0 0 1 1.89014 24z" fill="#90d2ed"/><path d="m302.48 384h-70.48v22.11a152.16654 152.16654 0 0 1 -123.1001-111.7101l27.1001-17.4199z" fill="#37a4c9"/><path d="m282.99023 152v-40h-70.48023l4.65991-3a152.03152 152.03152 0 0 1 188.93995 123h-155.11986v-56h16.00024v-24z" fill="#37a4c9"/><path d="m408 256a151.53218 151.53218 0 0 1 -48.6001 111.3999l-23.3999-23.3999 16-32-24-24 24-16 16-40-16-16h-32l-56-40 2.99023-5.98 9.00977-18.02 6.99023-13.97 14.19-28.38a151.8985 151.8985 0 0 1 110.81977 146.35z" fill="#349f66"/><path d="m160 280 56 24-6.7 20.1-1.3 3.9h-48l-13.40991 33.51a152.02113 152.02113 0 0 1 26.61991-233.01l50.79 39.5-19.06006 57.37-52.93994-25.37-8 32 16 8z" fill="#349f66"/><path d="m406.10986 232h-38.10986l-16-16h-32l-56-40h2.99023v-5.98l9.00977-18.02h6.99023v-13.97l14.19-28.38a152.12643 152.12643 0 0 1 108.92963 122.35z" fill="#008d55"/><path d="m209.30005 324.1-1.30005 3.9h-48l-13.40991 33.51a151.526 151.526 0 0 1 -37.69019-67.1101l27.1001-17.4199z" fill="#008d55"/><path d="m24 464h224v24h-224z" fill="#55a652"/><path d="m40 440h192v24h-192z" fill="#a8c92a"/><path d="m224 456h-184v8h192v-24h-8z" fill="#68be40"/><g fill="#a8c92a"><path d="m56 368h24v72h-24z"/><path d="m80 368h24v72h-24z"/><path d="m168 368h24v72h-24z"/><path d="m192 368h24v72h-24z"/><path d="m24 368h224l-112-72z"/></g><path d="m80 368v72h-24v-8h16v-56h-16v-8z" fill="#68be40"/><path d="m104 368v72h-24v-8h16v-56h-16v-8z" fill="#68be40"/><path d="m192 368v72h-24v-8h16v-56h-16v-8z" fill="#68be40"/><path d="m216 368v72h-24v-8h16v-56h-16v-8z" fill="#68be40"/><path d="m264 192h224v24h-224z" fill="#55a652"/><path d="m280 168h192v24h-192z" fill="#a8c92a"/><path d="m464 184h-184v8h192v-24h-8z" fill="#68be40"/><path d="m296 96h24v72h-24z" fill="#a8c92a"/><path d="m320 96h24v72h-24z" fill="#a8c92a"/><path d="m408 96h24v72h-24z" fill="#a8c92a"/><path d="m432 96h24v72h-24z" fill="#a8c92a"/><path d="m264 96h224l-112-72z" fill="#a8c92a"/><path d="m320 96v72h-24v-8h16v-56h-16v-8z" fill="#68be40"/><path d="m344 96v72h-24v-8h16v-56h-16v-8z" fill="#68be40"/><path d="m432 96v72h-24v-8h16v-56h-16v-8z" fill="#68be40"/><path d="m456 96v72h-24v-8h16v-56h-16v-8z" fill="#68be40"/><path d="m280.91016 41.42-1.82032 15.9a201.78991 201.78991 0 0 0 -23.08984-1.32q-9.52515 0-18.82007.88c-101.48999 9.51-181.17993 95.19-181.17993 199.12a200.41192 200.41192 0 0 0 7.68994 55.12l-15.37988 4.41a216.06619 216.06619 0 0 1 197.66994-275.3q4.9951-.225 10.02-.23a219.82771 219.82771 0 0 1 24.91016 1.42z" fill="#f4e2a0"/><path d="m472 256a215.59883 215.59883 0 0 1 -191.08984 214.58l-1.82032-15.9a199.5765 199.5765 0 0 0 176.91016-198.68c0-5.13-.2002-10.31-.58008-15.39l15.9502-1.22c.41988 5.49.62988 11.07.62988 16.61z" fill="#f4e2a0"/><path d="m280.91016 41.42-1.82032 15.9a201.78991 201.78991 0 0 0 -23.08984-1.32q-9.52515 0-18.82007.88l11.94019-11.94-3.14012-4.71q4.9951-.225 10.02-.23a219.82771 219.82771 0 0 1 24.91016 1.42z" fill="#f4c433"/><path d="m261.65723 77.65674-11.31446-11.31348 19.36328-19.36279-12.3623-18.543 13.3125-8.875 16 24a8 8 0 0 1 -.999 10.09424z" fill="#f4e2a0"/><path d="m313.6001 459.2 4.86963 3.65a215.65546 215.65546 0 0 1 -37.55957 7.73l-1.82032-15.9a198.94769 198.94769 0 0 0 46.1001-10.93z" fill="#f4c433"/><path d="m307.2002 494.3999-32-24a7.99976 7.99976 0 0 1 -1.60059-11.1997l24-32 12.80078 9.5996-19.20019 25.6001 25.5996 19.2002z" fill="#f4e2a0"/></g></svg>