<svg height="512" viewBox="0 0 512 512" width="512" xmlns="http://www.w3.org/2000/svg"><g id="Flat"><path d="m264 208h224v24h-224z" fill="#55a652"/><path d="m280 184h192v24h-192z" fill="#a8c92a"/><path d="m464 200h-184v8h192v-24h-8z" fill="#68be40"/><g fill="#a8c92a"><path d="m296 96h24v88h-24z"/><path d="m320 96h24v88h-24z"/><path d="m408 96h24v88h-24z"/><path d="m432 96h24v88h-24z"/><path d="m264 96h224l-112-72z"/></g><path d="m320 96v88h-24v-8h16v-72h-16v-8z" fill="#68be40"/><path d="m344 96v88h-24v-8h16v-72h-16v-8z" fill="#68be40"/><path d="m432 96v88h-24v-8h16v-72h-16v-8z" fill="#68be40"/><path d="m456 96v88h-24v-8h16v-72h-16v-8z" fill="#68be40"/><path d="m456 248v208h-120v32l-56-56 56-56v32h72v-160z" fill="#f4c433"/><path d="m456 248v208h-120v32l-16-16v-32h120v-192z" fill="#ee8c04"/><path d="m176 136v-32h-72v176l-16 10.67-32 21.33v-256h120v-32l56 56z" fill="#f4c433"/><path d="m176 88v16h-72v176l-16 10.67v-202.67z" fill="#ee8c04"/><path d="m176 136v-32l40-40 16 16z" fill="#ee8c04"/><path d="m24 464h224v24h-224z" fill="#55a652"/><path d="m40 440h192v24h-192z" fill="#a8c92a"/><path d="m224 456h-184v8h192v-24h-8z" fill="#68be40"/><path d="m56 352h24v88h-24z" fill="#a8c92a"/><path d="m80 352h24v88h-24z" fill="#a8c92a"/><path d="m168 352h24v88h-24z" fill="#a8c92a"/><path d="m192 352h24v88h-24z" fill="#a8c92a"/><path d="m24 352h224l-112-72z" fill="#a8c92a"/><path d="m80 352v88h-24v-8h16v-72h-16v-8z" fill="#68be40"/><path d="m104 352v88h-24v-8h16v-72h-16v-8z" fill="#68be40"/><path d="m192 352v88h-24v-8h16v-72h-16v-8z" fill="#68be40"/><path d="m216 352v88h-24v-8h16v-72h-16v-8z" fill="#68be40"/></g></svg>