<svg height="512" viewBox="0 0 512 512" width="512" xmlns="http://www.w3.org/2000/svg"><g id="Flat"><path d="m264 488h-48l-32-80-56-24 60.65045-171.84294a150.12 150.12 0 0 1 141.56173-100.15706h13.12355a150.12 150.12 0 0 1 136.66427 87.99991v.00009h-152a64 64 0 0 0 -64 64z" fill="#90d2ed"/><path d="m246.106 191.07275-12.212-10.33789a126.00724 126.00724 0 0 1 96.3184-44.73486h13.12354a125.82662 125.82662 0 0 1 86.26025 34.16016l-10.93555 11.67968a109.87824 109.87824 0 0 0 -75.3247-29.83984h-13.12354a110.03717 110.03717 0 0 0 -84.1064 39.07275z" fill="#37a4c9"/><path d="m173.18 256h18.82a32.02964 32.02964 0 0 1 32 32v32h-16v-32a16.02125 16.02125 0 0 0 -16-16h-24.47z" fill="#37a4c9"/><path d="m327 200h145a16 16 0 0 1 16 16v16a16 16 0 0 1 -16 16h-145a0 0 0 0 1 0 0v-48a0 0 0 0 1 0 0z" fill="#37a4c9"/><path d="m400 280h72a16 16 0 0 1 16 16v16a16 16 0 0 1 -16 16h-72a0 0 0 0 1 0 0v-48a0 0 0 0 1 0 0z" fill="#37a4c9"/><path d="m264 360h208a16 16 0 0 1 16 16v16a16 16 0 0 1 -16 16h-208a0 0 0 0 1 0 0v-48a0 0 0 0 1 0 0z" fill="#37a4c9"/><path d="m263.66667 440h192.33333a16 16 0 0 1 16 16v16a16 16 0 0 1 -16 16h-192.33333a0 0 0 0 1 0 0v-48a0 0 0 0 1 0 0z" fill="#37a4c9"/><path d="m263.667 408h192.333v32h-192.333z" fill="#acb8c2"/><path d="m264 328h208v32h-208z" fill="#acb8c2"/><path d="m392 248h80v32h-80z" fill="#acb8c2"/><circle cx="328" cy="288" fill="#cadae6" r="88"/><path d="m328 336a48 48 0 1 1 48-48 48.05436 48.05436 0 0 1 -48 48zm0-80a32 32 0 1 0 32 32 32.036 32.036 0 0 0 -32-32z" fill="#acb8c2"/><path d="m312 152v-128h-288v128h208l40 40v-40z" fill="#f4e2a0"/><g fill="#f4c433"><path d="m80 48h32v16h-32z"/><path d="m128 48h32v16h-32z"/><path d="m176 48h112v16h-112z"/><path d="m48 80h80v16h-80z"/><path d="m144 80h80v16h-80z"/><path d="m240 80h48v16h-48z"/><path d="m96 112h64v16h-64z"/><path d="m48 112h32v16h-32z"/></g></g></svg>