<svg height="512" viewBox="0 0 512 512" width="512" xmlns="http://www.w3.org/2000/svg"><g id="Flat"><path d="m80 176h272a32 32 0 0 1 32 32v168a32 32 0 0 1 -32 32h-272a32 32 0 0 1 -32-32v-168a32 32 0 0 1 32-32z" fill="#90d2ed"/><path d="m384 376a32 32 0 0 1 -32 32h-272a32 32 0 0 1 -32-32z" fill="#37a4c9"/><path d="m224 288v120h-144a32.00409 32.00409 0 0 1 -32-32v-32h16v-56z" fill="#37a4c9"/><path d="m224 376v32h-144a32 32 0 0 1 -32-32z" fill="#2d80b9"/><path d="m264 488h-96a28.92625 28.92625 0 0 0 16-25.89v-54.11h64v54.11a28.93916 28.93916 0 0 0 16 25.89z" fill="#90d2ed"/><path d="m168 408h56v80h-56z" fill="#37a4c9"/><path d="m264 488h-43.69995a31.98245 31.98245 0 0 1 27.69995-48v22.11a28.93916 28.93916 0 0 0 16 25.89z" fill="#37a4c9"/><path d="m384 488h-136a16 16 0 0 1 -16-16 16 16 0 0 1 16-16h136z" fill="#90d2ed"/><path d="m457.75377 456h-103.50757a8 8 0 0 1 -7.76114-9.94029l20-80a8 8 0 0 1 7.76114-6.05971h103.50757a8 8 0 0 1 7.76114 9.94029l-20 80a8 8 0 0 1 -7.76114 6.05971z" fill="#90d2ed"/><path d="m425.75377 456h-71.50757a8 8 0 0 1 -7.76114-9.94029l20-80a8 8 0 0 1 7.76114-6.05971h71.50757a8 8 0 0 1 7.76114 9.94029l-20 80a8 8 0 0 1 -7.76114 6.05971z" fill="#a8c92a"/><rect fill="#37a4c9" height="32" rx="16" width="136" x="336" y="456"/><path d="m184 216v-192h304v192h-200l-64 64v-64z" fill="#f4e2a0"/><g fill="#f4c433"><path d="m240 48h32v16h-32z"/><path d="m288 48h48v16h-48z"/><path d="m352 48h112v16h-112z"/><path d="m208 80h96v16h-96z"/><path d="m320 80h80v16h-80z"/><path d="m416 80h48v16h-48z"/><path d="m352 112h112v16h-112z"/><path d="m256 112h80v16h-80z"/><path d="m208 112h32v16h-32z"/><path d="m208 144h64v16h-64z"/><path d="m288 144h32v16h-32z"/><path d="m336 144h128v16h-128z"/><path d="m208 176h48v16h-48z"/><path d="m272 176h96v16h-96z"/></g><path d="m80 304h128v184h-128z" fill="#a8c92a"/><circle cx="144" cy="464" fill="#68be40" r="8"/><path d="m128 320h32v16h-32z" fill="#68be40"/><path d="m24 360h80v128h-80z" fill="#90d2ed"/><path d="m48 376h32v16h-32z" fill="#37a4c9"/><circle cx="64" cy="464" fill="#37a4c9" r="8"/></g></svg>