<svg height="512" viewBox="0 0 512 512" width="512" xmlns="http://www.w3.org/2000/svg"><g id="Flat"><path d="m488 176a152.09677 152.09677 0 0 1 -176 150.11 149.59251 149.59251 0 0 1 -24-5.85 152.03935 152.03935 0 1 1 200-144.26z" fill="#90d2ed"/><path d="m392 224-23.49 41.1-24.51 14.9v16l-8 8h-24v22.11a149.59251 149.59251 0 0 1 -24-5.85v-48.26l-32-32v-24l-48-48v-48l4.7-32.91a152.32457 152.32457 0 0 1 75.1001-55.28992l8.1999 8.19992-16 24 8 16 32-16 16 16-56 56h-32v24l32 32 16-16 32 16 8 24 24-8z" fill="#a8c92a"/><path d="m488 176a151.63583 151.63583 0 0 1 -11.25 57.5l-20.75-41.5-16 8-24-16v-64l-24-32 8-24h-16v-32l.32007-.16a152.0623 152.0623 0 0 1 103.67993 144.16z" fill="#a8c92a"/><rect fill="#37a6cb" height="352" rx="16" width="208" x="24" y="120"/><path d="m48 448v-304h32a24 24 0 0 0 24 24h48a24 24 0 0 0 24-24h32v304z" fill="#92d4ef"/><g fill="#39679d"><path d="m112 136h24v16h-24z"/><circle cx="152" cy="144" r="8"/><path d="m24 152h24v16h-24z"/><path d="m208 152h24v16h-24z"/><path d="m24 424h24v16h-24z"/><path d="m208 424h24v16h-24z"/></g><path d="m83.999 291.2041a47.99925 47.99925 0 1 1 88.00391-.001l-14.66211-6.40624a32.00022 32.00022 0 1 0 -58.68164-.001z" fill="#2d80bb"/><path d="m78.99512 244.874-13.99024-7.76367a72.35518 72.35518 0 0 1 35.99317-31.87305l6.0039 14.83008a56.30769 56.30769 0 0 0 -28.00683 24.80664z" fill="#2d80bb"/><path d="m176.51367 244.00586a56.38925 56.38925 0 0 0 -27.51465-23.9375l6.002-14.832a72.47293 72.47293 0 0 1 35.3623 30.75781z" fill="#2d80bb"/><path d="m240 352v72l-32 48v24h-96v-24l-32-48v-96a31.99139 31.99139 0 0 1 32 32v-88a16 16 0 1 1 32 0v80a16 16 0 1 1 32 0 16 16 0 1 1 32 0 16 16 0 1 1 32 0z" fill="#fcd6b7"/><path d="m112 360v24a8 8 0 0 1 -8 8 8 8 0 0 1 -8-8v-51.71a31.55 31.55 0 0 1 6.63 5.08008 31.89923 31.89923 0 0 1 9.37 22.62992z" fill="#f7b689"/><path d="m144 376a8.00008 8.00008 0 0 1 -8-8v-8a8 8 0 0 1 16 0v8a8.00008 8.00008 0 0 1 -8 8z" fill="#f7b689"/><path d="m176 376a8.00008 8.00008 0 0 1 -8-8v-8a8 8 0 0 1 16 0v8a8.00008 8.00008 0 0 1 -8 8z" fill="#f7b689"/><path d="m208 376a8.00008 8.00008 0 0 1 -8-8v-8a8 8 0 0 1 16 0v8a8.00008 8.00008 0 0 1 -8 8z" fill="#f7b689"/><path d="m112 472h24v16h-24z" fill="#f7b689"/><path d="m184 472h24v16h-24z" fill="#f7b689"/></g></svg>