<svg height="512" viewBox="0 0 512 512" width="512" xmlns="http://www.w3.org/2000/svg"><g id="Flat"><path d="m24 24h320v464h-320z" fill="#f4e2a0"/><g fill="#f4c433"><path d="m120 48h128v16h-128z"/><path d="m48 80h112v16h-112z"/><path d="m272 80h48v16h-48z"/><path d="m224 80h32v16h-32z"/><path d="m48 112h32v16h-32z"/><path d="m96 112h32v16h-32z"/><path d="m80 144h32v16h-32z"/><path d="m128 144h48v16h-48z"/><path d="m192 144h112v16h-112z"/><path d="m48 176h96v16h-96z"/><path d="m160 176h80v16h-80z"/><path d="m256 176h48v16h-48z"/><path d="m192 208h112v16h-112z"/><path d="m96 208h80v16h-80z"/><path d="m48 208h32v16h-32z"/><path d="m48 240h64v16h-64z"/><path d="m128 240h32v16h-32z"/><path d="m176 240h128v16h-128z"/><path d="m48 272h48v16h-48z"/><path d="m112 272h96v16h-96z"/></g><path d="m208.001 408c-.165 0-.33106-.00488-.49805-.01562a7.99913 7.99913 0 0 1 -6.6582-4.40674l-8.84475-17.68897-8.84473 17.689-14.31054-7.15528 16-32a7.99971 7.99971 0 0 1 14.31054 0l9.835 19.66993 8.35352-12.52979a7.99982 7.99982 0 0 1 13.81152.85986l5.78903 11.57761h19.05566v16h-24a7.99869 7.99869 0 0 1 -7.15527-4.42236l-1.835-3.66993-8.35352 12.52979a8.00042 8.00042 0 0 1 -6.65521 3.5625z" fill="#ea4042"/><path d="m168 416h40v16h-40z" fill="#f4c433"/><path d="m224 416h32v16h-32z" fill="#f4c433"/><path d="m488 328v144a16 16 0 0 1 -16 16h-176a16 16 0 0 1 -16-16v-320a16 16 0 0 1 16-16h176a16 16 0 0 1 16 16z" fill="#37a4c9"/><path d="m304 464v-304h32a24 24 0 0 0 24 24h48a24 24 0 0 0 24-24h32v304z" fill="#90d2ed"/><path d="m368 152h24v16h-24z" fill="#2d80b9"/><circle cx="408" cy="160" fill="#2d80b9" r="8"/><path d="m280 168h24v16h-24z" fill="#2d80b9"/><path d="m464 168h24v16h-24z" fill="#2d80b9"/><path d="m280 440h24v16h-24z" fill="#2d80b9"/><path d="m464 440h24v16h-24z" fill="#2d80b9"/><path d="m328 208h64v16h-64z" fill="#394f5a"/><path d="m416 208h32v16h-32z" fill="#394f5a"/><path d="m328 240h16v16h-16z" fill="#394f5a"/><path d="m360 240h16v16h-16z" fill="#394f5a"/><path d="m344 272h48v16h-48z" fill="#394f5a"/><path d="m408 272h32v16h-32z" fill="#394f5a"/><path d="m328 304h80v16h-80z" fill="#394f5a"/><path d="m424 304h16v16h-16z" fill="#394f5a"/><path d="m328 336h24v16h-24z" fill="#394f5a"/><path d="m368 336h72v16h-72z" fill="#394f5a"/><path d="m328 368h72v16h-72z" fill="#394f5a"/><path d="m392.001 440c-.165 0-.33106-.00488-.49805-.01562a7.99913 7.99913 0 0 1 -6.6582-4.40674l-8.84475-17.68897-8.84473 17.689-14.31054-7.15528 16-32a7.99971 7.99971 0 0 1 14.31054 0l9.835 19.66993 8.35352-12.52979a7.99982 7.99982 0 0 1 13.81152.85986l5.78903 11.57761h19.05566v16h-24a7.99869 7.99869 0 0 1 -7.15527-4.42236l-1.835-3.66993-8.35352 12.52979a8.00042 8.00042 0 0 1 -6.65521 3.5625z" fill="#ea4042"/></g></svg>