<svg height="512" viewBox="0 0 512 512" width="512" xmlns="http://www.w3.org/2000/svg"><g id="Flat"><path d="m200 80h58.74518a32 32 0 0 0 22.62739-9.37257 32 32 0 0 0 0-45.25478l-1.37257-1.37265 18.74521 18.74521a63.99994 63.99994 0 0 1 0 90.50958l-.00006.00006a63.99993 63.99993 0 0 1 -45.25479 18.74515h-53.49036z" fill="#e36080"/><path d="m120 104a79.99993 79.99993 0 0 1 32-64 79.99993 79.99993 0 0 1 32 64z" fill="#37a4c9"/><path d="m184 80h-6.05891a81.94105 81.94105 0 0 0 -57.94109 24v40h64z" fill="#e36080"/><path d="m174.627 136.97-56.107 57.155-17.11-30.785-11.37-20.47-9.32-16.78-11.37-20.47-45.35-81.62 55.37 41.53 13.89 10.41 11.38 8.54 13.88 10.41z" fill="#f4e2a0"/><path d="m118.52 94.89-17.11 68.45-11.37-20.47 14.6-58.39z" fill="#f4c433"/><path d="m93.26 75.94-12.54 50.15-11.37-20.47 10.02-40.09z" fill="#f4c433"/><path d="m496 344v152h-368a135.18228 135.18228 0 0 1 39.6-95.6001l16.4-16.3999a79.11446 79.11446 0 0 0 .12-111.87988l-.12-.12012v.2l-87.76 59.24a15.99306 15.99306 0 0 1 -16.87.64014l-47.6-27.10014a15.995 15.995 0 0 1 -4.88-23.5l101.83-135.77333 31.28-1.70667v-16a80.02057 80.02057 0 0 1 32-64 80.02057 80.02057 0 0 1 32 64l216 216z" fill="#90d2ed"/><path d="m216.95 269.26-22.7 15.32007a79.72334 79.72334 0 0 0 -10.13-12.46l23.88-16.12007z" fill="#37a4c9"/><path d="m168 136a22.6274 22.6274 0 0 1 0 32l-16.62193 16.62193a52.50411 52.50411 0 0 1 -37.12598 15.37807 52.5041 52.5041 0 0 0 -42.00328 21.00164l-8.24881 10.99836v-40.40206a39.59794 39.59794 0 0 1 39.59794-39.59794h.00006a39.59793 39.59793 0 0 0 28-11.598l4.402-4.402a22.6274 22.6274 0 0 1 32 0z" fill="#b28ec1"/><path d="m352 392h81.37261a54.62737 54.62737 0 0 0 38.62739-16 54.62737 54.62737 0 0 0 16-38.62737v-16a22.62739 22.62739 0 0 1 -22.62739 22.62737 22.6274 22.6274 0 0 1 -16-6.62741l-57.37261-57.37259z" fill="#f4d75a"/><path d="m240 128 20.88733-20.88733a44 44 0 0 1 62.22534 0 44 44 0 0 1 12.88733 31.11271v18.0589a28.28425 28.28425 0 0 0 8.28426 20l7.43148 7.43148a28.28425 28.28425 0 0 0 20 8.28426 28.28425 28.28425 0 0 0 28.28426-28.28426v28.6863a39.59794 39.59794 0 0 1 -39.59794 39.59794h-.00006a39.59793 39.59793 0 0 1 -28-11.598z" fill="#b28ec1"/><path d="m288 280v32l41.37261 41.37261a32 32 0 0 1 0 45.25478 32 32 0 0 1 -22.62743 9.37261h48a45.25479 45.25479 0 0 0 45.25482-45.25479v-.00006a45.25478 45.25478 0 0 0 -13.25482-32l-50.74518-50.74515z" fill="#e36080"/><path d="m280 152 112.201 112.201a28 28 0 0 0 39.59794 0 28 28 0 0 0 8.20106-19.799v47.71574a47.99994 47.99994 0 0 1 -14.05886 33.94109l-.00005.00005a47.99994 47.99994 0 0 1 -67.88218 0l-82.05891-82.05888z" fill="#68b99c"/><path d="m264 128 31.71575 31.71575a28.28426 28.28426 0 0 1 8.28427 20v72.56856a28.28426 28.28426 0 0 0 8.28427 20l3.71571 3.71569a28.28425 28.28425 0 0 0 40 0 40.9705 40.9705 0 0 0 12-28.97051v-15.02949a56.56848 56.56848 0 0 1 0 80 56.56848 56.56848 0 0 1 -80 0l-5.25489-5.25489a63.99993 63.99993 0 0 1 -18.74511-45.25475v-10.98072a63.99993 63.99993 0 0 0 -18.74515-45.25479l-29.25485-29.25485a33.9411 33.9411 0 0 1 0-48 33.94109 33.94109 0 0 1 48 0z" fill="#f4d75a"/></g></svg>