<svg height="512" viewBox="0 0 512 512" width="512" xmlns="http://www.w3.org/2000/svg"><g id="Flat"><rect fill="#90d2ed" height="288" rx="11.314" width="176" x="64" y="200"/><g fill="#37a4c9"><circle cx="152" cy="464" r="8"/><path d="m136 216h32v16h-32z"/><circle cx="184" cy="224" r="8"/></g><rect fill="#90d2ed" height="288" rx="11.314" width="176" x="272" y="24"/><circle cx="360" cy="288" fill="#37a4c9" r="8"/><path d="m344 40h32v16h-32z" fill="#37a4c9"/><circle cx="392" cy="48" fill="#37a4c9" r="8"/><circle cx="360" cy="136" fill="#f4e2a0" r="64"/><circle cx="152" cy="376" fill="#f4e2a0" r="64"/><path d="m432 134.23a69.732 69.732 0 0 1 -20.57007 49.6499l-136.10986 136.1201-29.66007 29.65991-11.32-11.32007 29.66-29.65991 136.12-136.10986a54.22807 54.22807 0 0 0 -38.35-92.57007h-3.54a54.29476 54.29476 0 0 0 -54.23 54.23v3.54a54.29476 54.29476 0 0 0 54.23 54.23h1.77v16h-1.77a70.303 70.303 0 0 1 -70.23-70.23v-3.54a70.303 70.303 0 0 1 70.23-70.23h3.54a70.303 70.303 0 0 1 70.23 70.23z" fill="#f4c433"/><path d="m275.32 320-29.66 29.66-11.32-11.32 29.66-29.66v11.32z" fill="#ee8c04"/><path d="m280 352h-40a8.00008 8.00008 0 0 1 -8-8v-40h16v32h32z" fill="#f4c433"/><path d="m111.88 339.42993a54.22807 54.22807 0 0 0 38.35 92.57007h3.54a54.29472 54.29472 0 0 0 54.23-54.23v-3.54a54.29472 54.29472 0 0 0 -54.23-54.23h-1.77v-16h1.77a70.303 70.303 0 0 1 70.23 70.23v3.54a70.303 70.303 0 0 1 -70.23 70.23h-3.54a70.22268 70.22268 0 0 1 -49.66-119.87988l136.11-136.12012 29.6601-29.66016 11.31982 11.32007-29.65992 29.66016z" fill="#f4c433"/><path d="m248 203.32v-11.32h-11.32l29.66-29.66 11.32 11.32z" fill="#ee8c04"/><path d="m280 208h-16v-32h-32v-16h40a8.00008 8.00008 0 0 1 8 8z" fill="#f4c433"/><path d="m373.65991 138.33984a19.31024 19.31024 0 0 1 -5.65991 31.24024v6.41992h-16v-6.41992a19.25581 19.25581 0 0 1 -5.65991-3.92017l-8-8 11.31982-11.32007 8 8a3.3093 3.3093 0 1 0 4.68018-4.67993l-16-16a19.30969 19.30969 0 0 1 5.65991-31.23999v-6.41992h16v6.41992a19.25494 19.25494 0 0 1 5.65991 3.91992l8 8-11.31982 11.32007-8-8a3.3093 3.3093 0 1 0 -4.68018 4.67993z" fill="#f4c433"/><path d="m149.65674 362.34277a3.31352 3.31352 0 0 1 4.68652-4.68554l8 8 11.31348-11.31446-8-8a19.17755 19.17755 0 0 0 -5.65674-3.89746v-6.44531h-16v6.44531a19.29069 19.29069 0 0 0 -5.65674 31.21192l16 16a3.31352 3.31352 0 0 1 -4.68652 4.68554l-8-8-11.31348 11.31446 8 8a19.18291 19.18291 0 0 0 5.65674 3.8977v6.44507h16v-6.44507a19.29091 19.29091 0 0 0 5.65674-31.21216z" fill="#f4c433"/></g></svg>