<svg height="512" viewBox="0 0 512 512" width="512" xmlns="http://www.w3.org/2000/svg"><g id="Flat"><path d="m104 24h304v464h-304z" fill="#90d2ed"/><g fill="#37a4c9"><path d="m136 216h48v48h-48z"/><path d="m232 216h48v48h-48z"/><path d="m328 216h48v48h-48z"/><path d="m136 312h48v48h-48z"/><path d="m232 312h48v48h-48z"/><path d="m328 312h48v48h-48z"/><path d="m136 408h48v48h-48z"/><path d="m232 408h48v48h-48z"/><path d="m328 408h48v48h-48z"/></g><path d="m136 56h240v128h-240z" fill="#68be40"/><path d="m192 120h-16v-24h-40v-16h48a8.00008 8.00008 0 0 1 8 8z" fill="#f4e2a0"/><path d="m184 160a24 24 0 1 1 24-24 24.02718 24.02718 0 0 1 -24 24zm0-32a8 8 0 1 0 8 8 8.00917 8.00917 0 0 0 -8-8z" fill="#f4c433"/><path d="m264 104h-48a8.00008 8.00008 0 0 1 -8-8v-40h16v32h40z" fill="#f4e2a0"/><path d="m280 120a24 24 0 1 1 24-24 24.02718 24.02718 0 0 1 -24 24zm0-32a8 8 0 1 0 8 8 8.00917 8.00917 0 0 0 -8-8z" fill="#f4c433"/><path d="m448 160h-40v-16h32v-40h16v48a8.00008 8.00008 0 0 1 -8 8z" fill="#f4e2a0"/><path d="m448 112a24 24 0 1 1 24-24 24.02718 24.02718 0 0 1 -24 24zm0-32a8 8 0 1 0 8 8 8.00917 8.00917 0 0 0 -8-8z" fill="#f4c433"/><path d="m456 264h-24a8.00008 8.00008 0 0 1 -8-8v-32h-16v-16h24a8.00008 8.00008 0 0 1 8 8v32h16z" fill="#f4e2a0"/><path d="m472 280a24 24 0 1 1 24-24 24.02718 24.02718 0 0 1 -24 24zm0-32a8 8 0 1 0 8 8 8.00917 8.00917 0 0 0 -8-8z" fill="#f4c433"/><path d="m408 376h48v16h-48z" fill="#f4e2a0"/><path d="m472 408a24 24 0 1 1 24-24 24.02718 24.02718 0 0 1 -24 24zm0-32a8 8 0 1 0 8 8 8.00917 8.00917 0 0 0 -8-8z" fill="#f4c433"/><path d="m56 336h48v16h-48z" fill="#f4e2a0"/><path d="m40 368a24 24 0 1 1 24-24 24.02718 24.02718 0 0 1 -24 24zm0-32a8 8 0 1 0 8 8 8.00917 8.00917 0 0 0 -8-8z" fill="#f4c433"/><path d="m376 168h-40a8.00008 8.00008 0 0 1 -8-8v-24h16v16h32z" fill="#f4e2a0"/><path d="m48 224h-16v-56a8.00008 8.00008 0 0 1 8-8h64v16h-56z" fill="#f4e2a0"/><path d="m40 264a24 24 0 1 1 24-24 24.02718 24.02718 0 0 1 -24 24zm0-32a8 8 0 1 0 8 8 8.00917 8.00917 0 0 0 -8-8z" fill="#f4c433"/><path d="m88 168h-16v-40h-24v-16h32a8.00008 8.00008 0 0 1 8 8z" fill="#f4e2a0"/><path d="m40 144a24 24 0 1 1 24-24 24.02718 24.02718 0 0 1 -24 24zm0-32a8 8 0 1 0 8 8 8.00917 8.00917 0 0 0 -8-8z" fill="#f4c433"/><path d="m336 144a24 24 0 1 1 24-24 24.02718 24.02718 0 0 1 -24 24zm0-32a8 8 0 1 0 8 8 8.00917 8.00917 0 0 0 -8-8z" fill="#f4c433"/></g></svg>