<svg height="512" viewBox="0 0 512 512" width="512" xmlns="http://www.w3.org/2000/svg"><g id="Flat"><path d="m488 216a63.995 63.995 0 0 1 -64 64h-288a64.00273 64.00273 0 0 1 -32-119.42993 63.32083 63.32083 0 0 1 16.1499-6.59007 120.02 120.02 0 0 1 232.78-34.6499 39.99263 39.99263 0 0 1 63.0701 32.6699c0 .16992-.01.33984-.01.52a63.87516 63.87516 0 0 1 72.01 63.48z" fill="#90d2ed"/><path d="m120 160a121.88241 121.88241 0 0 0 1.06006 16l-15.86006 2.10986a138.668 138.668 0 0 1 -1.2-17.53979 63.32083 63.32083 0 0 1 16.1499-6.59007c-.09985 2-.1499 4-.1499 6.02z" fill="#37a4c9"/><path d="m374.80005 141.89014-15.86011 2.10986a119.35912 119.35912 0 0 0 -6.01-24.66992 39.66212 39.66212 0 0 1 14.66016-6.43018 134.0475 134.0475 0 0 1 7.20995 28.99024z" fill="#37a4c9"/><path d="m360 328h-48a32 32 0 0 1 -32-32v-.00007a96.56837 96.56837 0 0 1 28.28422-68.28415l3.71578-3.71578h48l3.71578 3.71578a96.56837 96.56837 0 0 1 28.28422 68.28415v.00007a32 32 0 0 1 -32 32z" fill="#b37d4d"/><rect fill="#394f5a" height="32" rx="16" width="80" x="296" y="192"/><path d="m384 158v10a24.00619 24.00619 0 0 1 -24 24h-48a23.59567 23.59567 0 0 1 -3.87988-.32007 23.99707 23.99707 0 0 1 -20.12012-23.67993v-12a11.99685 11.99685 0 0 1 12-12h20a11.99685 11.99685 0 0 1 12 12 12 12 0 1 0 24 0 11.984 11.984 0 0 1 12-12h2a14.00257 14.00257 0 0 1 14 14z" fill="#b37d4d"/><path d="m336 192h-24a23.59567 23.59567 0 0 1 -3.87988-.32007 31.76822 31.76822 0 0 1 -4.12012-15.67993v-8h16v8a16.02116 16.02116 0 0 0 16 16z" fill="#9c6342"/><rect fill="#a8c92a" height="288" rx="11.314" width="176" x="24" y="200"/><g fill="#68be40"><circle cx="112" cy="464" r="8"/><path d="m96 216h32v16h-32z"/><circle cx="144" cy="224" r="8"/></g><circle cx="112" cy="344" fill="#f4e2a0" r="56"/><path d="m112 408a64 64 0 1 1 64-64 64.07207 64.07207 0 0 1 -64 64zm0-112a48 48 0 1 0 48 48 48.05375 48.05375 0 0 0 -48-48z" fill="#f4c433"/><path d="m109.65723 330.34277a3.31318 3.31318 0 0 1 4.68554-4.68554l8 8 11.31446-11.31446-8-8a19.28769 19.28769 0 0 0 -5.65723-3.90966v-6.43311h-16v6.43311a19.30334 19.30334 0 0 0 -5.65723 31.22412l16 16a3.31318 3.31318 0 1 1 -4.68554 4.68554l-8-8-11.31446 11.31446 8 8a19.28769 19.28769 0 0 0 5.65723 3.90966v6.43311h16v-6.43311a19.30334 19.30334 0 0 0 5.65723-31.22412z" fill="#f4c433"/></g></svg>