<svg height="512" viewBox="0 0 512 512" width="512" xmlns="http://www.w3.org/2000/svg"><g id="Flat"><path d="m320 48h16v32h-16z" fill="#ee8c04"/><path d="m320 16h16v16h-16z" fill="#ee8c04"/><path d="m368 32h16v24h-16z" fill="#ee8c04"/><path d="m416 16h16v32h-16z" fill="#ee8c04"/><path d="m232 328v144a16 16 0 0 1 -16 16h-176a16 16 0 0 1 -16-16v-304a16 16 0 0 1 16-16h176a16 16 0 0 1 16 16z" fill="#37a4c9"/><path d="m48 464v-288h32a24 24 0 0 0 24 24h48a24 24 0 0 0 24-24h32v288z" fill="#90d2ed"/><g fill="#2d80b9"><path d="m112 168h24v16h-24z"/><circle cx="152" cy="176" r="8"/><path d="m24 184h24v16h-24z"/><path d="m208 184h24v16h-24z"/><path d="m24 440h24v16h-24z"/><path d="m208 440h24v16h-24z"/></g><circle cx="128" cy="320" fill="#f4e2a0" r="56"/><path d="m125.65723 306.34277a3.31318 3.31318 0 0 1 4.68554-4.68554l8 8 11.31446-11.31446-8-8a19.28769 19.28769 0 0 0 -5.65723-3.90966v-6.43311h-16v6.43311a19.30334 19.30334 0 0 0 -5.65723 31.22412l16 16a3.31318 3.31318 0 1 1 -4.68554 4.68554l-8-8-11.31446 11.31446 8 8a19.28769 19.28769 0 0 0 5.65723 3.90966v6.43311h16v-6.43311a19.30334 19.30334 0 0 0 5.65723-31.22412z" fill="#f4c433"/><path d="m128 384a64 64 0 1 1 64-64 64.07207 64.07207 0 0 1 -64 64zm0-112a48 48 0 1 0 48 48 48.05375 48.05375 0 0 0 -48-48z" fill="#f4c433"/><path d="m480 279.06006a55.32531 55.32531 0 0 1 -.71 8.81982 54.2735 54.2735 0 0 1 -2.12012 8.6001l-21.16988 63.52002h-32v-41.01a32.00775 32.00775 0 0 1 -8 1.01h-28.35986l-3.64014 40h-32v-32h-32v32h-32l-8-88v-48h144.93994a55.05836 55.05836 0 0 1 55.06006 55.06006z" fill="#fcafc1"/><path d="m448 288a31.92759 31.92759 0 0 1 -8 21.1499v50.8501h-16v-41.01a32.00775 32.00775 0 0 1 -8 1.01h-28.35986l1.45-16 2.90986-32 15.92993 1.45-2.78003 30.55h10.8501a16.02116 16.02116 0 0 0 16-16z" fill="#ee94af"/><path d="m384.6499 248.73a70.00362 70.00362 0 0 1 -8.49 13.22c.12012 1.46.18018 2.92993.18018 4.38989a53.69727 53.69727 0 0 1 -5.37008 23.39011v.41016l-2.28 3.81982a53.95831 53.95831 0 0 1 -46.01 26.04h-5.35986a53.85325 53.85325 0 0 1 -34.07014-12.24998l-3.25-35.75v-48h111.67993a70.68947 70.68947 0 0 1 -7.03003 24.73z" fill="#ee94af"/><path d="m376 200v17.37012a54.66811 54.66811 0 0 1 -16 38.62988l-.87012.87012a37.63044 37.63044 0 0 1 -4.15988 28.83988v.01a37.66147 37.66147 0 0 1 -32.29 18.28h-5.35986a37.66147 37.66147 0 0 1 -32.29-18.28v-.01a37.65283 37.65283 0 0 1 -4.15991-28.83984l-.87023-.87016a54.66811 54.66811 0 0 1 -16-38.62988v-17.37012h9.37012a54.64169 54.64169 0 0 1 38.62988 16h16a54.63454 54.63454 0 0 1 38.62988-16z" fill="#fcafc1"/><path d="m283.2 222.3999 12.8 9.6001-8.81006 11.74a37.69731 37.69731 0 0 0 -6.31982 13.13013l-.87012-.87013a54.457 54.457 0 0 1 -10.32007-14.37988 54.46753 54.46753 0 0 1 4.71021-7.48z" fill="#ee94af"/><path d="m370.32007 241.62012a54.457 54.457 0 0 1 -10.32007 14.37988l-.87012.87012a37.87436 37.87436 0 0 0 -6.31982-13.13012l-8.81006-11.74 12.8-9.6001 8.80981 11.74024a54.46753 54.46753 0 0 1 4.71026 7.47998z" fill="#ee94af"/><path d="m330.34277 277.65723a14.64326 14.64326 0 0 0 -20.68554 0l-11.31446-11.31446a30.628 30.628 0 0 1 43.31446 0z" fill="#ee94af"/><circle cx="376" cy="112" fill="#f4e2a0" r="56"/><path d="m376 48a64 64 0 1 0 64 64 64.07207 64.07207 0 0 0 -64-64zm0 112a48 48 0 1 1 48-48 48.05375 48.05375 0 0 1 -48 48z" fill="#f4c433"/><path d="m378.34277 93.65723 8 8 11.31446-11.31446-8-8a19.28769 19.28769 0 0 0 -5.65723-3.90966v-6.43311h-16v6.43311a19.30334 19.30334 0 0 0 -5.65723 31.22412l16 16a3.31318 3.31318 0 0 1 -4.68554 4.68554l-8-8-11.31446 11.31446 8 8a19.28769 19.28769 0 0 0 5.65723 3.90966v6.43311h16v-6.43311a19.30334 19.30334 0 0 0 5.65723-31.22412l-16-16a3.31318 3.31318 0 0 1 4.68554-4.68554z" fill="#f4c433"/></g></svg>