<svg height="512" viewBox="0 0 512 512" width="512" xmlns="http://www.w3.org/2000/svg"><g id="Flat"><rect fill="#37a4c9" height="464" rx="16" width="256" x="128" y="24"/><path d="m152 88h208v320h-208z" fill="#90d2ed"/><g fill="#2d80b9"><path d="m240 48h48v16h-48z"/><circle cx="224" cy="56" r="8"/><path d="m256 472a24 24 0 1 1 24-24 24.0275 24.0275 0 0 1 -24 24zm0-32a8 8 0 1 0 8 8 8.00917 8.00917 0 0 0 -8-8z"/></g><path d="m280 264 32-32v-96h176v176h-176v-48z" fill="#a8c92a"/><path d="m232 312-32-32v-96h-176v176h176v-48z" fill="#a8c92a"/><circle cx="112" cy="272" fill="#f4e2a0" r="56"/><path d="m112 208a64 64 0 1 0 64 64 64.07207 64.07207 0 0 0 -64-64zm0 112a48 48 0 1 1 48-48 48.05375 48.05375 0 0 1 -48 48z" fill="#f4c433"/><path d="m114.34277 253.65723 8 8 11.31446-11.31446-8-8a19.28769 19.28769 0 0 0 -5.65723-3.90966v-6.43311h-16v6.43311a19.30334 19.30334 0 0 0 -5.65723 31.22412l16 16a3.31318 3.31318 0 1 1 -4.68554 4.68554l-8-8-11.31446 11.31446 8 8a19.28769 19.28769 0 0 0 5.65723 3.90966v6.43311h16v-6.43311a19.30334 19.30334 0 0 0 5.65723-31.22412l-16-16a3.31318 3.31318 0 0 1 4.68554-4.68554z" fill="#f4c433"/><circle cx="400" cy="224" fill="#f4e2a0" r="56"/><path d="m400 160a64 64 0 1 0 64 64 64.07207 64.07207 0 0 0 -64-64zm0 112a48 48 0 1 1 48-48 48.05375 48.05375 0 0 1 -48 48z" fill="#f4c433"/><path d="m402.34277 205.65723 8 8 11.31446-11.31446-8-8a19.28769 19.28769 0 0 0 -5.65723-3.90966v-6.43311h-16v6.43311a19.30334 19.30334 0 0 0 -5.65723 31.22412l16 16a3.31318 3.31318 0 0 1 -4.68554 4.68554l-8-8-11.31446 11.31446 8 8a19.28769 19.28769 0 0 0 5.65723 3.90966v6.43311h16v-6.43311a19.30334 19.30334 0 0 0 5.65723-31.22412l-16-16a3.31318 3.31318 0 0 1 4.68554-4.68554z" fill="#f4c433"/></g></svg>