<svg height="512" viewBox="0 0 512 512" width="512" xmlns="http://www.w3.org/2000/svg"><g id="Flat"><path d="m216 288a40.00186 40.00186 0 0 1 -40 40h-120v-.8a40.012 40.012 0 0 1 0-78.3999v-.8001a56.009 56.009 0 0 1 108.61-19.23 15.95255 15.95255 0 0 1 11.39-4.77 16.35533 16.35533 0 0 1 4.11.53 15.995 15.995 0 0 1 8.37 25.47 39.99946 39.99946 0 0 1 27.52 38z" fill="#90d2ed"/><path d="m56 248.80005a56.45717 56.45717 0 0 0 2.38 15.26l-15.33 4.56982a71.4463 71.4463 0 0 1 -2.59-12.97 40.03194 40.03194 0 0 1 15.54-6.85982z" fill="#37a4c9"/><path d="m184.06 248.06006h-16a55.61832 55.61832 0 0 0 -3.45-19.29 15.95255 15.95255 0 0 1 11.39-4.77006 16.35533 16.35533 0 0 1 4.11.53 71.63523 71.63523 0 0 1 3.95 23.53006z" fill="#37a4c9"/><path d="m488 192a40.00186 40.00186 0 0 1 -40 40h-120v-.8a40.012 40.012 0 0 1 0-78.3999v-.8001a56.009 56.009 0 0 1 108.61-19.23 15.95255 15.95255 0 0 1 11.39-4.77 16.35533 16.35533 0 0 1 4.11.53 15.995 15.995 0 0 1 8.37 25.47 39.99946 39.99946 0 0 1 27.52 38z" fill="#90d2ed"/><path d="m328 152.80005a56.45717 56.45717 0 0 0 2.38 15.26l-15.33 4.56982a71.4463 71.4463 0 0 1 -2.59-12.97 40.03194 40.03194 0 0 1 15.54-6.85982z" fill="#37a4c9"/><path d="m456.06 152.06006h-16a55.61832 55.61832 0 0 0 -3.45-19.29 15.95255 15.95255 0 0 1 11.39-4.77006 16.35533 16.35533 0 0 1 4.11.53 71.63523 71.63523 0 0 1 3.95 23.53006z" fill="#37a4c9"/><path d="m168 216h176v280h-176z" fill="#a8c92a"/><g fill="#d4de6f"><path d="m168 448h40v32h-40z"/><path d="m240 448h32v32h-32z"/><path d="m304 448h40v32h-40z"/><path d="m168 240h40v32h-40z"/><path d="m240 240h32v32h-32z"/><path d="m304 240h40v32h-40z"/></g><circle cx="256.125" cy="360" fill="#f4e2a0" r="56"/><path d="m256.125 296a64 64 0 1 0 64 64 64.07207 64.07207 0 0 0 -64-64zm0 112a48 48 0 1 1 48-48 48.05375 48.05375 0 0 1 -48 48z" fill="#f4c433"/><path d="m258.46777 341.65723 8 8 11.31446-11.31446-8-8a19.28769 19.28769 0 0 0 -5.65723-3.90966v-6.43311h-16v6.43311a19.30334 19.30334 0 0 0 -5.65723 31.22412l16 16a3.31318 3.31318 0 1 1 -4.68554 4.68554l-8-8-11.31446 11.31446 8 8a19.28769 19.28769 0 0 0 5.65723 3.90966v6.43311h16v-6.43311a19.30334 19.30334 0 0 0 5.65723-31.22412l-16-16a3.31318 3.31318 0 0 1 4.68554-4.68554z" fill="#f4c433"/><path d="m192 184h128v32h-128z" fill="#68be40"/><path d="m208 152h96v32h-96z" fill="#a8c92a"/><path d="m232 152 16-128h16l16 128z" fill="#d4de6f"/><path d="m88 296h-16v144a8.00008 8.00008 0 0 0 8 8h24v-16h-16v-48h16v-16h-16z" fill="#f4e2a0"/><path d="m456 272h-16v-72h-16v136h-16v16h24a8.00008 8.00008 0 0 0 8-8v-56h16z" fill="#f4e2a0"/><path d="m120 400a24 24 0 1 1 24-24 24.02718 24.02718 0 0 1 -24 24zm0-32a8 8 0 1 0 8 8 8.00917 8.00917 0 0 0 -8-8z" fill="#f4c433"/><path d="m120 464a24 24 0 1 1 24-24 24.02718 24.02718 0 0 1 -24 24zm0-32a8 8 0 1 0 8 8 8.00917 8.00917 0 0 0 -8-8z" fill="#f4c433"/><path d="m472 304a24 24 0 1 1 24-24 24.02718 24.02718 0 0 1 -24 24zm0-32a8 8 0 1 0 8 8 8.00917 8.00917 0 0 0 -8-8z" fill="#f4c433"/><path d="m392 368a24 24 0 1 1 24-24 24.02718 24.02718 0 0 1 -24 24zm0-32a8 8 0 1 0 8 8 8.00917 8.00917 0 0 0 -8-8z" fill="#f4c433"/></g></svg>