<svg height="512" viewBox="0 0 512 512" width="512" xmlns="http://www.w3.org/2000/svg"><g id="Flat"><path d="m160 360 96 40 96-40-96-40z" fill="#ee8c04"/><path d="m256 320-96 40-48-24 96-40z" fill="#f4e2a0"/><path d="m392 344-40 16-96-40 40-16z" fill="#f4e2a0"/><path d="m192 272h128v144h-128z" fill="#34a166"/><path d="m296 272h24v144h-24z" fill="#008f55"/><path d="m192 272h24v144h-24z" fill="#008f55"/><circle cx="256" cy="312" fill="#68bb9e" r="8"/><circle cx="256" cy="368" fill="#68bb9e" r="16"/><path d="m376 136v80h48l16-16h56v-64z" fill="#fad4b5"/><path d="m360 136v11.75a47.75219 47.75219 0 0 0 32 12.25h16a16 16 0 0 0 16-16v-8z" fill="#f8c79a"/><path d="m280 24h128v224h-128z" fill="#34a166" transform="matrix(-1 0 0 -1 688 272)"/><path d="m384 24h24v224h-24z" fill="#008f55"/><path d="m280 24h24v224h-24z" fill="#008f55"/><g fill="#68bb9e"><circle cx="344" cy="80" r="8"/><circle cx="344" cy="192" r="8"/><circle cx="344" cy="136" r="16"/></g><path d="m408 144a32 32 0 0 1 -32-32h40l24 24h56v8z" fill="#fad4b5"/><path d="m136 136v80h-48l-16-16h-56v-64z" fill="#fad4b5"/><path d="m152 136v11.75a47.75219 47.75219 0 0 1 -32 12.25h-16a16 16 0 0 1 -16-16v-8z" fill="#f8c79a"/><path d="m104 24h128v224h-128z" fill="#34a166"/><path d="m104 24h24v224h-24z" fill="#008f55"/><path d="m208 24h24v224h-24z" fill="#008f55"/><circle cx="168" cy="80" fill="#68bb9e" r="8"/><circle cx="168" cy="192" fill="#68bb9e" r="8"/><circle cx="168" cy="136" fill="#68bb9e" r="16"/><path d="m104 144a32 32 0 0 0 32-32h-40l-24 24h-56v8z" fill="#fad4b5"/><path d="m256 400v88l-96-40v-88z" fill="#fade66"/><path d="m352 360v88l-96 40v-88z" fill="#faba34"/><path d="m400 384-96 40-48-24 96-40z" fill="#f4e2a0"/><path d="m256 400-40 16-96-40 40-16z" fill="#f4e2a0"/></g></svg>