<svg height="512" viewBox="0 0 512 512" width="512" xmlns="http://www.w3.org/2000/svg"><g id="Flat"><path d="m264 232h224v32h-224z" fill="#2d80b9"/><path d="m280 200h192v32h-192z" fill="#90d2ed"/><path d="m464 224h-184v8h192v-32h-8z" fill="#37a4c9"/><g fill="#90d2ed"><path d="m296 96h24v104h-24z"/><path d="m320 96h24v104h-24z"/><path d="m408 96h24v104h-24z"/><path d="m432 96h24v104h-24z"/><path d="m264 96h224l-112-72z"/></g><path d="m320 96v104h-24v-8h16v-88h-16v-8z" fill="#37a4c9"/><path d="m344 96v104h-24v-8h16v-88h-16v-8z" fill="#37a4c9"/><path d="m432 96v104h-24v-8h16v-88h-16v-8z" fill="#37a4c9"/><path d="m456 96v104h-24v-8h16v-88h-16v-8z" fill="#37a4c9"/><path d="m96 232h160v96h-160z" fill="#34a166"/><path d="m256 232h48v96h-48z" fill="#067a4b"/><path d="m272 272h16v56h-16z" fill="#056940"/><circle cx="224" cy="280" fill="#68bb9e" r="8"/><circle cx="128" cy="280" fill="#68bb9e" r="8"/><path d="m96 232h160v24h-160z" fill="#008f55"/><path d="m96 304h160v24h-160z" fill="#008f55"/><path d="m160 232h32v96h-32z" fill="#f6e4a2"/><path d="m304 368-72 72h-80l-56 56h-72l64-64a27.31821 27.31821 0 0 0 8-19.31006v-1.37988a27.315 27.315 0 0 1 27.31006-27.31006h1.37988a27.3175 27.3175 0 0 0 19.31006-8l8-8a33.94988 33.94988 0 0 1 48 0l-32 32h56l32-32a33.94988 33.94988 0 0 1 48 0z" fill="#fad4b5"/><path d="m190.62 400-19.31 19.31-11.31-11.31 8-8z" fill="#f8c79a"/></g></svg>