<svg height="512" viewBox="0 0 512 512" width="512" xmlns="http://www.w3.org/2000/svg"><g id="Flat"><rect fill="#90d2ed" height="336" rx="24" width="192" x="24" y="88"/><circle cx="120" cy="400" fill="#37a4c9" r="8"/><path d="m104 104h32v16h-32z" fill="#37a4c9"/><circle cx="152" cy="112" fill="#37a4c9" r="8"/><rect fill="#90d2ed" height="336" rx="24" width="192" x="296" y="88"/><circle cx="392" cy="400" fill="#37a4c9" r="8"/><path d="m376 104h32v16h-32z" fill="#37a4c9"/><circle cx="424" cy="112" fill="#37a4c9" r="8"/><path d="m200 184h240v144h-240z" fill="#34a166"/><path d="m200 184h240v24h-240z" fill="#008f55"/><path d="m200 304h240v24h-240z" fill="#008f55"/><circle cx="392" cy="256" fill="#68bb9e" r="8"/><circle cx="248" cy="256" fill="#68bb9e" r="8"/><circle cx="320" cy="256" fill="#68bb9e" r="24"/><g fill="#008f55"><path d="m144 200h32v16h-32z"/><path d="m112 200h16v16h-16z"/><path d="m128 248h48v16h-48z"/><path d="m144 296h32v16h-32z"/><path d="m96 296h32v16h-32z"/></g></g></svg>