<svg height="512" viewBox="0 0 512 512" width="512" xmlns="http://www.w3.org/2000/svg"><g id="Flat"><path d="m390.06006 361.93994a47.81254 47.81254 0 0 0 33.93994 14.06006h-296a48 48 0 0 1 0-96h296a47.81254 47.81254 0 0 0 -33.93994 14.06006c-.63013.62988-1.24 1.27978-1.83008 1.93994a47.96365 47.96365 0 0 0 -9.5 16 46.50959 46.50959 0 0 0 -2.06006 8 48.10186 48.10186 0 0 0 0 16 46.50959 46.50959 0 0 0 2.06006 8 47.96365 47.96365 0 0 0 9.5 16c.59009.65991 1.19995 1.31006 1.83008 1.93994z" fill="#abcd7b"/><path d="m424 384h-296a56 56 0 0 1 0-112h296v16h-296a40 40 0 0 0 0 80h296z" fill="#68be40"/><path d="m388.23 296a47.96365 47.96365 0 0 0 -9.5 16h-250.73v-16z" fill="#8ebe65"/><path d="m376 328a47.90087 47.90087 0 0 0 .66992 8h-264.66992v-16h264.66992a47.90087 47.90087 0 0 0 -.66992 8z" fill="#8ebe65"/><path d="m388.23 360h-260.23v-16h250.73a47.96365 47.96365 0 0 0 9.5 16z" fill="#8ebe65"/><path d="m361.37012 270.62988a31.89884 31.89884 0 0 0 22.62988 9.37012h-224a32 32 0 1 1 0-64h224a31.99894 31.99894 0 0 0 -22.62988 54.62988z" fill="#ed9fa1"/><path d="m384 288h-224a40 40 0 0 1 0-80h224v16h-224a24 24 0 0 0 0 48h224z" fill="#ea4042"/><path d="m352 248a32.00775 32.00775 0 0 0 1.01 8h-185.01v-16h185.01a32.00775 32.00775 0 0 0 -1.01 8z" fill="#ef8c96"/><path d="m432.3999 471.6001a55.863 55.863 0 0 0 39.6001 16.3999h-376a56 56 0 1 1 0-112h376a56.00157 56.00157 0 0 0 -39.6001 95.6001z" fill="#f4e2a0"/><path d="m472 496h-376a64 64 0 0 1 0-128h376v16h-376a48 48 0 0 0 0 96h376z" fill="#f4c433"/><path d="m426.04 400a55.75124 55.75124 0 0 0 -7.72 16h-330.32v-16z" fill="#f4d75a"/><path d="m416 432a55.47477 55.47477 0 0 0 .57007 8h-344.57007v-16h344.57007a55.47477 55.47477 0 0 0 -.57007 8z" fill="#f4d75a"/><path d="m426.04 464h-338.04v-16h330.32007a55.75124 55.75124 0 0 0 7.71993 16z" fill="#f4d75a"/><path d="m160 24h192v192h-192z" fill="#90d2ed"/><path d="m200 64h112v112h-112z" fill="#a8c92a"/><path d="m200 96h24v16h-24z" fill="#f4e2a0"/><path d="m288 128h24v16h-24z" fill="#f4e2a0"/><path d="m272 160a24 24 0 1 1 24-24 24.0275 24.0275 0 0 1 -24 24zm0-32a8 8 0 1 0 8 8 8.00917 8.00917 0 0 0 -8-8z" fill="#f4c433"/><path d="m160 88h-64a8.00235 8.00235 0 0 1 -5.65723-2.34277l-32-32 11.31446-11.31446 29.65625 29.65723h60.68652z" fill="#f4e2a0"/><path d="m56 64a24 24 0 1 1 24-24 24.0275 24.0275 0 0 1 -24 24zm0-32a8 8 0 1 0 8 8 8.00917 8.00917 0 0 0 -8-8z" fill="#f4c433"/><path d="m240 128a24 24 0 1 1 24-24 24.0275 24.0275 0 0 1 -24 24zm0-32a8 8 0 1 0 8 8 8.00917 8.00917 0 0 0 -8-8z" fill="#f4c433"/><g fill="#f4e2a0"><path d="m200 24h16v40h-16z"/><path d="m232 24h16v40h-16z"/><path d="m264 24h16v40h-16z"/><path d="m296 24h16v40h-16z"/><path d="m296 176h16v40h-16z"/><path d="m264 176h16v40h-16z"/><path d="m232 176h16v40h-16z"/><path d="m200 176h16v40h-16z"/><path d="m69.65723 205.65723-11.31446-11.31446 40-40a8.00235 8.00235 0 0 1 5.65723-2.34277h56v16h-52.68652z"/></g><path d="m56 232a24 24 0 1 1 24-24 24.0275 24.0275 0 0 1 -24 24zm0-32a8 8 0 1 0 8 8 8.00917 8.00917 0 0 0 -8-8z" fill="#f4c433"/><path d="m352 112h72v16h-72z" fill="#f4e2a0"/><path d="m440 144a24 24 0 1 1 24-24 24.0275 24.0275 0 0 1 -24 24zm0-32a8 8 0 1 0 8 8 8.00917 8.00917 0 0 0 -8-8z" fill="#f4c433"/><path d="m88 112h72v16h-72z" fill="#f4e2a0"/><path d="m72 144a24 24 0 1 1 24-24 24.0275 24.0275 0 0 1 -24 24zm0-32a8 8 0 1 0 8 8 8.00917 8.00917 0 0 0 -8-8z" fill="#f4c433"/><path d="m440 200h-24a8.00235 8.00235 0 0 1 -5.65723-2.34277l-29.65625-29.65723h-28.68652v-16h32a8.00235 8.00235 0 0 1 5.65723 2.34277l29.65625 29.65723h20.68652z" fill="#f4e2a0"/><path d="m456 216a24 24 0 1 1 24-24 24.0275 24.0275 0 0 1 -24 24zm0-32a8 8 0 1 0 8 8 8.00917 8.00917 0 0 0 -8-8z" fill="#f4c433"/><path d="m376 88h-24v-16h20.68652l29.65625-29.65723a8.00235 8.00235 0 0 1 5.65723-2.34277h32v16h-28.68652l-29.65625 29.65723a8.00235 8.00235 0 0 1 -5.65723 2.34277z" fill="#f4e2a0"/><path d="m456 72a24 24 0 1 1 24-24 24.0275 24.0275 0 0 1 -24 24zm0-32a8 8 0 1 0 8 8 8.00917 8.00917 0 0 0 -8-8z" fill="#f4c433"/></g></svg>