<svg height="512" viewBox="0 0 512 512" width="512" xmlns="http://www.w3.org/2000/svg"><g id="Flat"><g fill="#90d2ed"><path d="m344 304h112v192h-112z"/><path d="m200 352h112v144h-112z"/><path d="m56 392h112v104h-112z"/></g><path d="m114.34277 429.65723 8 8 11.31446-11.31446-8-8a19.28769 19.28769 0 0 0 -5.65723-3.90966v-6.43311h-16v6.43311a19.30334 19.30334 0 0 0 -5.65723 31.22412l16 16a3.31318 3.31318 0 1 1 -4.68554 4.68554l-8-8-11.31446 11.31446 8 8a19.28769 19.28769 0 0 0 5.65723 3.90966v6.43311h16v-6.43311a19.30334 19.30334 0 0 0 5.65723-31.22412l-16-16a3.31318 3.31318 0 0 1 4.68554-4.68554z" fill="#f4e2a0"/><path d="m258.34277 389.65723 8 8 11.31446-11.31446-8-8a19.291 19.291 0 0 0 -5.65723-3.90966v-6.43311h-16v6.43311a19.30334 19.30334 0 0 0 -5.65723 31.22412l16 16a3.31318 3.31318 0 1 1 -4.68554 4.68554l-8-8-11.31446 11.31446 8 8a19.28769 19.28769 0 0 0 5.65723 3.90966v6.43311h16v-6.43311a19.30334 19.30334 0 0 0 5.65723-31.22412l-16-16a3.31318 3.31318 0 0 1 4.68554-4.68554z" fill="#f4e2a0"/><path d="m397.65723 346.34277a3.31318 3.31318 0 0 1 4.68554-4.68554l8 8 11.31446-11.31446-8-8a19.291 19.291 0 0 0 -5.65723-3.90966v-6.43311h-16v6.43311a19.30334 19.30334 0 0 0 -5.65723 31.22412l16 16a3.31318 3.31318 0 0 1 -4.68554 4.68554l-8-8-11.31446 11.31446 8 8a19.291 19.291 0 0 0 5.65723 3.90966v6.43311h16v-6.43311a19.30334 19.30334 0 0 0 5.65723-31.22412z" fill="#f4e2a0"/><path d="m360 272h80v32h-80z" fill="#37a4c9"/><path d="m216 320h80v32h-80z" fill="#37a4c9"/><path d="m72 360h80v32h-80z" fill="#37a4c9"/><path d="m88 360 24-72 24 72z" fill="#90d2ed"/><path d="m232 320 24-72 24 72z" fill="#90d2ed"/><path d="m376 272 24-72 24 72z" fill="#90d2ed"/><path d="m128 96v80h-48l-16-16h-48v-64z" fill="#fad4b5"/><path d="m128 96v11.75a47.75219 47.75219 0 0 1 -32 12.25h-16a16 16 0 0 1 -16-16v-8z" fill="#f8c79a"/><path d="m168 216h-48a32 32 0 0 1 -32-32v-2.74521a109.25471 109.25471 0 0 1 32-77.25479h48a109.25471 109.25471 0 0 1 32 77.25476v2.74524a32 32 0 0 1 -32 32z" fill="#b37d4d"/><rect fill="#394f5a" height="32" rx="16" width="80" x="104" y="72"/><path d="m192 38v10a24.00619 24.00619 0 0 1 -24 24h-48a23.59567 23.59567 0 0 1 -3.87988-.32007 23.99707 23.99707 0 0 1 -20.12012-23.67993v-12a11.99685 11.99685 0 0 1 12-12h20a11.99685 11.99685 0 0 1 12 12 12 12 0 1 0 24 0 11.984 11.984 0 0 1 12-12h2a14.00257 14.00257 0 0 1 14 14z" fill="#b37d4d"/><path d="m144 72h-24a23.59567 23.59567 0 0 1 -3.87988-.32007 31.76822 31.76822 0 0 1 -4.12012-15.67993v-8h16v8a16.02116 16.02116 0 0 0 16 16z" fill="#9c6342"/><path d="m96 104a32 32 0 0 0 32-32h-40l-24 24h-48v8z" fill="#fad4b5"/><path d="m450.34 167.65-38.96 11.93-353.04 108.07-4.68-15.3 350.68-107.35 41.32-12.65z" fill="#a8c92a"/><path d="m411.38 179.58 4.42-8.85-11.46-5.73 41.32-12.65 4.68 15.3z" fill="#68be40"/><path d="m439.15527 195.57812-14.31054-7.15624 12.42187-24.84376-24.84472-12.42285 7.15624-14.31054 32 16a8.00074 8.00074 0 0 1 3.57715 10.73339z" fill="#a8c92a"/><path d="m141.65723 146.34277a3.31318 3.31318 0 0 1 4.68554-4.68554l8 8 11.31446-11.31446-8-8a19.28769 19.28769 0 0 0 -5.65723-3.90966v-6.43311h-16v6.43311a19.30334 19.30334 0 0 0 -5.65723 31.22412l16 16a3.31318 3.31318 0 0 1 -4.68554 4.68554l-8-8-11.31446 11.31446 8 8a19.28769 19.28769 0 0 0 5.65723 3.90966v6.43311h16v-6.43311a19.30334 19.30334 0 0 0 5.65723-31.22412z" fill="#f4e2a0"/></g></svg>