<svg height="512" viewBox="0 0 512 512" width="512" xmlns="http://www.w3.org/2000/svg"><g id="Flat"><path d="m240 152h32v96h-32z" fill="#017a4a"/><path d="m240 24h224v128h-224z" fill="#008f55"/><path d="m240 24h224v24h-224z" fill="#017a4a"/><circle cx="416" cy="88" fill="#68bb9e" r="8"/><circle cx="288" cy="88" fill="#68bb9e" r="8"/><circle cx="352" cy="88" fill="#68bb9e" r="16"/><path d="m240 128h224v24h-224z" fill="#017a4a"/><path d="m304 488h-104a48 48 0 0 1 -48-48v-2.37069a159.99985 159.99985 0 0 1 71.24789-133.12791l.75211-.5014h64 .00006a159.99982 159.99982 0 0 1 63.99994 127.99992v8.00008a48 48 0 0 1 -48 48z" fill="#b37d4d"/><rect fill="#394f5a" height="24" rx="12" width="112" x="200" y="280"/><path d="m320 232v16a32.00214 32.00214 0 0 1 -28.02 31.75 30.8341 30.8341 0 0 1 -3.98.25h-64.02a30.3704 30.3704 0 0 1 -3.95-.25 31.99616 31.99616 0 0 1 -28.05-31.75v-16a15.99555 15.99555 0 0 1 16-16h15.98a16.019 16.019 0 0 1 16.02 16 16.01 16.01 0 1 0 32.02 0 15.97839 15.97839 0 0 1 15.98-15.99l16-.01a16.0062 16.0062 0 0 1 16.02 16z" fill="#b37d4d"/><path d="m256 280h-32.02a30.3704 30.3704 0 0 1 -3.95-.25 47.73856 47.73856 0 0 1 -12.03-31.75h16a32.036 32.036 0 0 0 32 32z" fill="#9c6342"/><path d="m304 248a47.78018 47.78018 0 0 1 -12.02 31.75 30.8341 30.8341 0 0 1 -3.98.25h-32a32.036 32.036 0 0 0 32-32z" fill="#9c6342"/><path d="m240 56h40v96h-40z" fill="#017a4a"/><path d="m48 64h224v128h-224z" fill="#34a166"/><path d="m48 64h224v24h-224z" fill="#008f55"/><circle cx="224" cy="128" fill="#68bb9e" r="8"/><circle cx="96" cy="128" fill="#68bb9e" r="8"/><circle cx="160" cy="128" fill="#68bb9e" r="16"/><path d="m48 168h224v24h-224z" fill="#008f55"/><g fill="#f6e4a2"><path d="m56 456h48v32h-48z"/><path d="m56 424h48v32h-48z"/><path d="m104 456h48v32h-48z"/><path d="m104 424h48v32h-48z"/><path d="m152 456h48v32h-48z"/><path d="m152 424h48v32h-48z"/><path d="m152 392h48v32h-48z"/><path d="m200 456h48v32h-48z"/><path d="m200 424h48v32h-48z"/><path d="m200 392h48v32h-48z"/><path d="m152 360h48v32h-48z"/></g><path d="m248 456v32h-48v-8h40v-24z" fill="#f4c433"/><path d="m200 456v32h-48v-8h40v-24z" fill="#f4c433"/><path d="m248 424v32h-48v-8h40v-24z" fill="#f4c433"/><path d="m200 424v32h-48v-8h40v-24z" fill="#f4c433"/><path d="m248 392v32h-48v-8h40v-24z" fill="#f4c433"/><path d="m200 392v32h-48v-8h40v-24z" fill="#f4c433"/><path d="m200 360v32h-48v-8h40v-24z" fill="#f4c433"/><path d="m152 456v32h-48v-8h40v-24z" fill="#f4c433"/><path d="m104 456v32h-48v-8h40v-24z" fill="#f4c433"/><path d="m152 424v32h-48v-8h40v-24z" fill="#f4c433"/><path d="m104 424v32h-48v-8h40v-24z" fill="#f4c433"/><path d="m248 392h160v96h-160z" fill="#34a166"/><path d="m408 392h48v96h-48z" fill="#067a4b"/><path d="m424 432h16v56h-16z" fill="#056940"/><circle cx="376" cy="440" fill="#68bb9e" r="8"/><circle cx="280" cy="440" fill="#68bb9e" r="8"/><path d="m248 392h160v24h-160z" fill="#008f55"/><path d="m248 464h160v24h-160z" fill="#008f55"/><path d="m312 392h32v96h-32z" fill="#f6e4a2"/><path d="m272 128h8v24h-8z" fill="#056940"/></g></svg>