<svg height="512" viewBox="0 0 512 512" width="512" xmlns="http://www.w3.org/2000/svg"><g id="Flat"><path d="m376 256a120.08131 120.08131 0 0 1 -152 115.68018 117.71849 117.71849 0 0 1 -24-9.53028 120.01913 120.01913 0 1 1 176-106.1499z" fill="#37a4c9"/><path d="m296 288-23.49 41.1001-24.51 14.8999v16l-8 8h-16v3.68018a117.71849 117.71849 0 0 1 -24-9.53028v-34.1499l-32-32v-24l-24-40v-19.16016a120.21059 120.21059 0 0 1 90.01-74.82984l13.99 13.99-32 56h-32v24l8 24 16-16 24 16 8 24 24-8z" fill="#a8c92a"/><path d="m376 256a120.89422 120.89422 0 0 1 -2.4 24h-45.6l-16-16v-64l-24-32 8.35-25.04a120.0523 120.0523 0 0 1 79.65 113.04z" fill="#a8c92a"/><path d="m64 208v-160h208v-24l40 40-40 40v-24h-176v128z" fill="#f4c433"/><path d="m448 304v160h-208v24l-40-40 40-40v24h176v-128z" fill="#f4c433"/><rect fill="#90d2ed" height="256" rx="16" width="144" x="24" y="232"/><rect fill="#90d2ed" height="256" rx="16" width="144" x="344" y="24"/><g fill="#37a4c9"><circle cx="448" cy="48" r="8"/><circle cx="96" cy="464" r="8"/><path d="m80 248h32v16h-32z"/><circle cx="128" cy="256" r="8"/></g><path d="m98.34326 341.65723 8 8 11.31348-11.31446-8-8a19.18226 19.18226 0 0 0 -5.65674-3.89746v-6.44531h-16v6.44531a19.29069 19.29069 0 0 0 -5.65674 31.21192l16 16a3.31352 3.31352 0 0 1 -4.68652 4.68554l-8-8-11.31348 11.31446 8 8a19.184 19.184 0 0 0 5.65674 3.89795v6.44482h16v-6.44482a19.29115 19.29115 0 0 0 5.65674-31.21241l-16-16a3.31352 3.31352 0 1 1 4.68652-4.68554z" fill="#f4c433"/><circle cx="416" cy="256" fill="#37a4c9" r="8"/><path d="m400 40h32v16h-32z" fill="#37a4c9"/><path d="m413.65674 138.34277a3.31352 3.31352 0 0 1 4.68652-4.68554l8 8 11.31348-11.31446-8-8a19.17665 19.17665 0 0 0 -5.65674-3.89746v-6.44531h-16v6.44531a19.29069 19.29069 0 0 0 -5.65674 31.21192l16 16a3.31352 3.31352 0 1 1 -4.68652 4.68554l-8-8-11.31348 11.31446 8 8a19.182 19.182 0 0 0 5.65674 3.8977v6.44507h16v-6.44507a19.29091 19.29091 0 0 0 5.65674-31.21216z" fill="#f4c433"/></g></svg>