<svg height="512" viewBox="0 0 512 512" width="512" xmlns="http://www.w3.org/2000/svg"><g id="Flat"><path d="m464 216a63.99511 63.99511 0 0 1 -64 64h-288a64.00273 64.00273 0 0 1 -32-119.42993 63.31987 63.31987 0 0 1 16.15-6.59007 120.02 120.02 0 0 1 232.77991-34.6499 39.99263 39.99263 0 0 1 63.07009 32.6699c0 .16992-.01.33984-.01.52a63.87516 63.87516 0 0 1 72.01 63.48z" fill="#90d2ed"/><path d="m97.06006 176-15.86006 2.10986a138.417 138.417 0 0 1 -1.2-17.53979 63.31987 63.31987 0 0 1 16.15-6.59007c-.1 2-.15 4-.15 6.02a121.79036 121.79036 0 0 0 1.06006 16z" fill="#37a4c9"/><rect fill="#a8c92a" height="200" rx="18" width="288" x="176" y="232"/><path d="m176 400h288v14a18 18 0 0 1 -18 18h-252a18 18 0 0 1 -18-18z" fill="#68be40"/><path d="m288 432h64v30.11147a28.94425 28.94425 0 0 0 16 25.88853h-96a28.94425 28.94425 0 0 0 16-25.88852z" fill="#a8c92a"/><path d="m178.04652 488h120a16 16 0 0 0 16-16 16 16 0 0 0 -16-16h-120z" fill="#cadae6"/><rect fill="#acb8c2" height="32" rx="16" width="155.019" x="39.028" y="456"/><path d="m184.15 456h-131.57993a8.00456 8.00456 0 0 1 -7.82007-6.31982l-20.57007-96a8.00186 8.00186 0 0 1 7.82007-9.68018h131.58008a8.00451 8.00451 0 0 1 7.81992 6.31982l20.56995 96a8.00177 8.00177 0 0 1 -7.81995 9.68018z" fill="#cadae6"/><path d="m184.15 456h-102.1a8.00732 8.00732 0 0 1 -7.83-6.31982l-20.57-96a8.00843 8.00843 0 0 1 7.83-9.68018h102.1001a8.00451 8.00451 0 0 1 7.8199 6.31982l20.56995 96a8.00177 8.00177 0 0 1 -7.81995 9.68018z" fill="#90d2ed"/><rect fill="#90d2ed" height="136" rx="16" width="80" x="424" y="352"/><g fill="#37a4c9"><circle cx="464" cy="464" r="8"/><path d="m456 368h16v16h-16z"/></g></g></svg>