<svg height="512" viewBox="0 0 512 512" width="512" xmlns="http://www.w3.org/2000/svg"><g id="Flat"><path d="m168 488v-464h248l72 72v392z" fill="#f4e2a0"/><g fill="#f4c433"><path d="m264 200h128v16h-128z"/><path d="m192 232h32v16h-32z"/><path d="m240 232h32v16h-32z"/><path d="m224 264h32v16h-32z"/><path d="m272 264h48v16h-48z"/><path d="m336 264h112v16h-112z"/><path d="m192 296h96v16h-96z"/><path d="m304 296h80v16h-80z"/><path d="m400 296h48v16h-48z"/><path d="m240 328h80v16h-80z"/><path d="m192 328h32v16h-32z"/></g><path d="m400.001 408c-.165 0-.33106-.00488-.49805-.01562a7.99961 7.99961 0 0 1 -6.6582-4.40626l-8.84475-17.68945-8.84473 17.68945-14.31054-7.15624 16-32a8.00009 8.00009 0 0 1 14.31054 0l9.835 19.66992 8.35352-12.5293a8 8 0 0 1 13.81152.85938l5.78903 11.57812h19.05566v16h-24a7.99912 7.99912 0 0 1 -7.15527-4.42188l-1.835-3.66992-8.35352 12.5293a8.00163 8.00163 0 0 1 -6.65521 3.5625z" fill="#ea4042"/><path d="m360 416h40v16h-40z" fill="#f4c433"/><path d="m416 416h32v16h-32z" fill="#f4c433"/><path d="m416 24v72h72z" fill="#f4c433"/><path d="m224 152h144v24h-144z" fill="#a8c92a"/><path d="m240 96h24v56h-24z" fill="#68be40"/><path d="m328 96h24v56h-24z" fill="#68be40"/><path d="m216 96h160l-80-40z" fill="#a8c92a"/><circle cx="136" cy="368" fill="#90d2ed" r="120"/><path d="m200 303.43018v80.56982a47.99476 47.99476 0 0 1 -19.19995 38.3999l-44.80005 33.6001-44.8-33.6001a47.99476 47.99476 0 0 1 -19.2-38.3999v-80.56982a40.98019 40.98019 0 0 0 64 0 40.98019 40.98019 0 0 0 64 0z" fill="#68be40"/><path d="m200 303.43018v80.56982a47.99476 47.99476 0 0 1 -19.19995 38.3999l-44.80005 33.6001v-152.56982a40.98019 40.98019 0 0 0 64 0z" fill="#55a652"/><path d="m168 318.81006v65.18994a16.07482 16.07482 0 0 1 -6.3999 12.7998l-25.6001 19.2002-25.6001-19.2002a16.07482 16.07482 0 0 1 -6.3999-12.7998v-65.18994a40.77163 40.77163 0 0 0 32-15.37988 40.77163 40.77163 0 0 0 32 15.37988z" fill="#a8c92a"/></g></svg>