<svg height="512" viewBox="0 0 512 512" width="512" xmlns="http://www.w3.org/2000/svg"><g id="Flat"><rect fill="#37a4c9" height="464" rx="16" transform="matrix(0 1 -1 0 616 104)" width="256" x="128" y="128"/><path d="m48 256h416v48a24 24 0 0 0 -24 24v64a24 24 0 0 0 24 24v48h-416z" fill="#90d2ed"/><g fill="#2d80b9"><path d="m456 344h16v32h-16z"/><circle cx="464" cy="392" r="8"/><path d="m440 232h16v24h-16z"/><path d="m440 464h16v24h-16z"/><path d="m56 232h16v24h-16z"/><path d="m56 464h16v24h-16z"/></g><path d="m288.125 200h-64v-124.22295a57.88846 57.88846 0 0 1 32-51.777 57.88846 57.88846 0 0 1 32 51.777z" fill="#f5e3a1"/><path d="m224.125 200h-48a57.94108 57.94108 0 0 1 16.97055-40.97053l31.02945-31.02947z" fill="#f5c533"/><path d="m224.125 200h64v24h-64z" fill="#f5c533"/><path d="m232.125 224h48v24h-48z" fill="#ef8d04"/><path d="m288.125 200h48a57.94108 57.94108 0 0 0 -16.97055-40.97053l-31.02945-31.02947z" fill="#f5c533"/><path d="m392.125 360a32.004 32.004 0 0 1 -32 32h-208a32 32 0 0 1 0-64c.19 0 .38 0 .57.00977a31.65918 31.65918 0 0 1 15.6 4.37011 39.99442 39.99442 0 0 1 39.83-36.37988c.9 0 1.79.02979 2.68.08984a39.76048 39.76048 0 0 1 15.5 4.28028 81.79661 81.79661 0 0 0 5.82-30.31006v-22.06006h48v22.06006a81.79661 81.79661 0 0 0 5.82 30.31006 39.76048 39.76048 0 0 1 15.5-4.28028c.89-.06 1.78-.08984 2.68-.08984a39.99442 39.99442 0 0 1 39.83 36.37988 31.65918 31.65918 0 0 1 15.6-4.37011c.19-.00977.38-.00977.57-.00977a32.004 32.004 0 0 1 32 32z" fill="#cadae6"/><path d="m226.305 300.37012a81.51811 81.51811 0 0 1 -18.18 27.62988l-11.31-11.31006a65.88623 65.88623 0 0 0 13.99-20.6001 39.76048 39.76048 0 0 1 15.5 4.28028z" fill="#acb8c2"/><path d="m315.435 316.68994-11.31 11.31006a81.91022 81.91022 0 0 1 -18.18-27.62988 39.76048 39.76048 0 0 1 15.5-4.28028 65.88623 65.88623 0 0 0 13.99 20.6001z" fill="#acb8c2"/><path d="m171.455 352-14.66 6.41016a56.15194 56.15194 0 0 1 -4.1-30.40039 31.65918 31.65918 0 0 1 15.6 4.37011c-.11 1.2002-.17 2.39991-.17 3.62012a39.68616 39.68616 0 0 0 3.33 16z" fill="#acb8c2"/><path d="m360.125 336a55.60351 55.60351 0 0 1 -4.67 22.41016l-14.66-6.41016a39.68616 39.68616 0 0 0 3.33-16c0-1.22021-.06-2.43018-.17-3.62012a31.65918 31.65918 0 0 1 15.6-4.37011 55.46391 55.46391 0 0 1 .57 7.99023z" fill="#acb8c2"/></g></svg>