<svg height="512" viewBox="0 0 512 512" width="512" xmlns="http://www.w3.org/2000/svg"><g id="Flat"><path d="m464 200a63.995 63.995 0 0 1 -64 64h-288a64.00273 64.00273 0 0 1 -32-119.42993 63.32083 63.32083 0 0 1 16.1499-6.59007 120.02019 120.02019 0 0 1 232.78028-34.6499 39.99244 39.99244 0 0 1 63.06982 32.6699c0 .16992-.00977.33984-.00977.52a63.87493 63.87493 0 0 1 72.00977 63.48z" fill="#90d2ed"/><path d="m96 144a121.13519 121.13519 0 0 0 2.3999 24l-15.6799 3.17993a137.66884 137.66884 0 0 1 -2.72-26.60986 63.32083 63.32083 0 0 1 16.1499-6.59007c-.09985 2-.1499 4-.1499 6.02z" fill="#37a4c9"/><path d="m351.7002 134.95-15.96 1.05a119.03448 119.03448 0 0 0 -6.81-32.66992 39.65638 39.65638 0 0 1 14.65966-6.43018 134.83327 134.83327 0 0 1 8.11034 38.0501z" fill="#37a4c9"/><path d="m344 376h-176v-240h112l64 64z" fill="#f4e2a0"/><g fill="#f4c433"><path d="m280 136v64h64z"/><path d="m192 160h32v16h-32z"/><path d="m192 192h32v16h-32z"/><path d="m208 224h16v16h-16z"/><path d="m240 224h80v16h-80z"/><path d="m192 256h64v16h-64z"/><path d="m272 256h48v16h-48z"/><path d="m272 304h32v16h-32z"/><path d="m192 288h32v16h-32z"/><path d="m184 456h-16v-16a8.00235 8.00235 0 0 1 2.34277-5.65723l29.65723-29.65625v-28.68652h16v32a8.00235 8.00235 0 0 1 -2.34277 5.65723l-29.65723 29.65625z"/></g><path d="m176 496a24 24 0 1 1 24-24 24.0275 24.0275 0 0 1 -24 24zm0-32a8 8 0 1 0 8 8 8.00917 8.00917 0 0 0 -8-8z" fill="#ee8c04"/><path d="m344 456h-16v-12.68652l-29.65723-29.65625a8.00235 8.00235 0 0 1 -2.34277-5.65723v-32h16v28.68652l29.65723 29.65625a8.00235 8.00235 0 0 1 2.34277 5.65723z" fill="#f4c433"/><path d="m336 496a24 24 0 1 1 24-24 24.0275 24.0275 0 0 1 -24 24zm0-32a8 8 0 1 0 8 8 8.00917 8.00917 0 0 0 -8-8z" fill="#ee8c04"/><path d="m248 376h16v48h-16z" fill="#f4c433"/><path d="m256 464a24 24 0 1 1 24-24 24.0275 24.0275 0 0 1 -24 24zm0-32a8 8 0 1 0 8 8 8.00917 8.00917 0 0 0 -8-8z" fill="#ee8c04"/></g></svg>