<svg height="512" viewBox="0 0 64 64" width="512" xmlns="http://www.w3.org/2000/svg"><g id="Layer_29" data-name="Layer 29"><circle cx="32" cy="32" fill="#c1c8d1" r="30"/><path d="m40 39h-16a11 11 0 0 0 -11 11v5.21a30 30 0 0 0 38 0v-5.21a11 11 0 0 0 -11-11z" fill="#c7e2fb"/><path d="m40 39h-16a11 11 0 0 0 -11 11v5.21a30 30 0 0 0 38 0v-5.21a11 11 0 0 0 -11-11z" fill="#c7e2fb"/><path d="m24 39a11 11 0 0 0 -11 11v5.21a29.8 29.8 0 0 0 9.67 5.3c11.5-1.94 20.67-9.68 23.45-19.65a11 11 0 0 0 -6.12-1.86z" fill="#ebf7fe"/><path d="m32 45 5-6h4l-3 9z" fill="#c7e2fb"/><path d="m32 45-5-6h-4l3 9z" fill="#c7e2fb"/><path d="m28 31a4 4 0 0 0 4 4 4 4 0 0 0 4-4" fill="none" stroke="#000" stroke-linejoin="round" stroke-width="2"/><path d="m45 22v4a13 13 0 0 1 -13 13 13 13 0 0 1 -13-13v-4h8.17a10.3 10.3 0 0 0 8.83-5 10.3 10.3 0 0 0 8.83 5z" fill="#fddfb1"/><path d="m32 39a13 13 0 0 1 -5-1v1l5 6 5-6v-1a13 13 0 0 1 -5 1z" fill="#fddfb1"/><path d="m32 7a13 13 0 0 0 -13 13v2h8.17a10.3 10.3 0 0 0 8.83-5 10.3 10.3 0 0 0 8.83 5h.17v-2a13 13 0 0 0 -13-13z" fill="#c18e5c"/><path d="m45.5 22h-.5v4a12.9 12.9 0 0 1 -.36 3h.86a3.5 3.5 0 0 0 0-7z" fill="#fddfb1"/><path d="m19 26v-4h-.5a3.5 3.5 0 0 0 0 7h.86a12.9 12.9 0 0 1 -.36-3z" fill="#fddfb1"/><path d="m32 36a5 5 0 0 0 5-5h-2a3 3 0 0 1 -6 0h-2a5 5 0 0 0 5 5z"/><path d="m32 1a31 31 0 1 0 31 31 31 31 0 0 0 -31-31zm14 25v-2.95a2.5 2.5 0 0 1 -.15 4.95 14.27 14.27 0 0 0 .15-2zm-2-5a9.34 9.34 0 0 1 -7.14-4.46 1 1 0 0 0 -1.72 0 9.34 9.34 0 0 1 -8 4.51h-7.14v-1.05a12 12 0 0 1 24 0zm-25.85 7a2.5 2.5 0 0 1 -.15-4.95v2.95a14.27 14.27 0 0 0 .15 2zm1.85-5h7.17a11.38 11.38 0 0 0 8.83-4.25 11.39 11.39 0 0 0 8 4.25v3a12 12 0 0 1 -24 0zm30 31.71a28.48 28.48 0 0 1 -4 2.68v-6.39h-2v7.39a28.72 28.72 0 0 1 -11 2.61v-14.38l4.55 2.27a1 1 0 0 0 .83 0 1 1 0 0 0 .57-.6l2.72-8.17a10 10 0 0 1 8.33 9.88zm-15.14-14.71-2.86 3.44-2.86-3.44zm2.56 6.59-3.84-1.92 3.89-4.67h2.14zm-10.89-6.59 3.89 4.67-3.84 1.92-2.19-6.59zm-4.2.15 2.72 8.17a1 1 0 0 0 .95.68 1 1 0 0 0 .45-.11l4.55-2.27v14.38a28.72 28.72 0 0 1 -11-2.58v-7.42h-2v6.39a28.48 28.48 0 0 1 -4-2.68v-4.71a10 10 0 0 1 8.33-9.85zm29.67 12.85v-3a12 12 0 0 0 -12-12h-.83a14 14 0 0 0 6.24-8h.09a4.49 4.49 0 0 0 .5-8.95v-1.05a14 14 0 0 0 -28 0v1.05a4.49 4.49 0 0 0 .5 9h.09a14 14 0 0 0 6.24 8h-.83a12 12 0 0 0 -12 11.95v3a29 29 0 1 1 40 0z"/></g></svg>