<svg height="480pt" viewBox="-72 0 480 480" width="480pt" xmlns="http://www.w3.org/2000/svg"><path d="m328 40c0-17.671875-14.328125-32-32-32h-256c-17.671875 0-32 14.328125-32 32v16h320zm0 0" fill="#a7a9ac"/><path d="m328 56h-320v352h320zm-50.71875 301.28125c-21.386719 21.390625-54.828125 24.894531-80.179688 8.390625-25.351562-16.5-35.6875-48.496094-24.78125-76.710937l-132.320312-128.800782v-48.160156h44.558594l11.441406 11.601562-.480469 36.398438h32.480469v32l32-.480469.398438 32.480469 33.363281.398438 25.519531 24.882812c27.683594-5.644531 55.792969 7.539062 69.160156 32.429688 13.371094 24.890624 8.832032 55.605468-11.160156 75.570312zm0 0" fill="#00ccb3"/><path d="m40 472h256c17.671875 0 32-14.328125 32-32v-32h-320v32c0 17.671875 14.328125 32 32 32zm152-32" fill="#a7a9ac"/><path d="m219.28125 249.28125c-12.335938 2.476562-23.664062 8.542969-32.5625 17.4375-6.339844 6.296875-11.25 13.878906-14.398438 22.242188-10.523437 27.273437-1.226562 58.214843 22.589844 75.171874 23.816406 16.957032 56.09375 15.617188 78.425782-3.25 22.332031-18.871093 29.039062-50.472656 16.292968-76.785156s-41.699218-40.640625-70.347656-34.816406zm28.71875 94.71875c-8.835938 0-16-7.164062-16-16s7.164062-16 16-16 16 7.164062 16 16-7.164062 16-16 16zm0 0" fill="#ff9811"/><path d="m219.28125 249.28125-25.519531-24.882812-33.363281-.398438-.398438-32.480469-32 .480469v-32h-32.480469l.480469-36.398438-11.441406-11.601562h-44.558594v48.160156l132.320312 128.800782c3.148438-8.363282 8.058594-15.945313 14.398438-22.242188 8.898438-8.894531 20.226562-14.960938 32.5625-17.4375zm0 0" fill="#fbb040"/><path d="m264 328c0 8.835938-7.164062 16-16 16s-16-7.164062-16-16 7.164062-16 16-16 16 7.164062 16 16zm0 0" fill="#ffcd00"/><path d="m296 0h-256c-22.082031.0273438-39.9726562 17.917969-40 40v400c.0273438 22.082031 17.917969 39.972656 40 40h256c22.082031-.027344 39.972656-17.917969 40-40v-400c-.027344-22.082031-17.917969-39.9726562-40-40zm-280 64h304v336h-304zm24-48h256c13.253906 0 24 10.746094 24 24v8h-304v-8c0-13.253906 10.746094-24 24-24zm256 448h-256c-13.253906 0-24-10.746094-24-24v-24h304v24c0 13.253906-10.746094 24-24 24zm0 0"/><path d="m192 432h-48c-4.417969 0-8 3.582031-8 8s3.582031 8 8 8h48c4.417969 0 8-3.582031 8-8s-3.582031-8-8-8zm0 0"/><path d="m282.9375 261.0625c-15.980469-15.929688-38.515625-23.433594-60.859375-20.261719l-22.734375-22.160156c-1.472656-1.4375-3.441406-2.25-5.496094-2.273437l-25.542968-.304688-.304688-24.636719c-.023438-2.128906-.894531-4.15625-2.417969-5.640625-1.523437-1.480468-3.574219-2.296875-5.703125-2.265625l-23.878906.359375v-23.878906c0-4.417969-3.582031-8-8-8h-24.375l.375-28.296875c.027344-2.136719-.800781-4.195313-2.304688-5.71875l-11.4375-11.601563c-1.503906-1.53125-3.554687-2.394531-5.699218-2.398437h-44.558594c-4.417969 0-8 3.582031-8 8v48.160156c-.007812 2.15625.859375 4.226563 2.398438 5.734375l128.800781 125.410156c-9.488281 31.546876 3.667969 65.507813 31.933593 82.429688 28.265626 16.925781 64.414063 12.480469 87.738282-10.78125 28.019531-28.167969 28.046875-73.671875.066406-101.875zm-234.9375-141.0625h33.214844l6.738281 6.839844-.433594 33.054687c-.027343 2.140625.804688 4.203125 2.304688 5.726563 1.503906 1.523437 3.554687 2.378906 5.695312 2.378906h24.480469v24c0 2.144531.859375 4.195312 2.386719 5.699219 1.523437 1.503906 3.589843 2.332031 5.734375 2.300781l24-.359375.292968 24.457031c.054688 4.34375 3.5625 7.851563 7.90625 7.902344l30.160157.359375 13.597656 13.257813c-2.015625.847656-4 1.796874-5.910156 2.824218l-.273438.125c-2.722656 1.488282-5.347656 3.152344-7.855469 4.976563-.625.449219-1.230468.914062-1.847656 1.378906-4.800781 3.585937-9.089844 7.804687-12.757812 12.542969-.53125.671875-1 1.375-1.503906 2.0625-1.160157 1.601562-2.273438 3.199218-3.289063 4.855468-.226563.371094-.503906.695313-.71875 1.066407l-121.921875-118.648438zm223.625 231.625c-18.726562 18.726562-48.011719 21.773438-70.191406 7.308594-22.183594-14.46875-31.199219-42.496094-21.609375-67.179688 2.730469-7.292968 7.011719-13.90625 12.550781-19.378906 7.777344-7.785156 17.6875-13.09375 28.480469-15.246094 3.6875-.746094 7.4375-1.121094 11.199219-1.121094 22.652343.003907 43.070312 13.65625 51.734374 34.585938 8.660157 20.933594 3.859376 45.019531-12.164062 61.03125zm0 0"/><path d="m248 304c-13.253906 0-24 10.746094-24 24s10.746094 24 24 24 24-10.746094 24-24-10.746094-24-24-24zm0 32c-4.417969 0-8-3.582031-8-8s3.582031-8 8-8 8 3.582031 8 8-3.582031 8-8 8zm0 0"/></svg>