<?xml version="1.0" encoding="iso-8859-1"?>
<!-- Generator: Adobe Illustrator 19.0.0, SVG Export Plug-In . SVG Version: 6.00 Build 0)  -->
<svg version="1.1" id="Capa_1" xmlns="http://www.w3.org/2000/svg" xmlns:xlink="http://www.w3.org/1999/xlink" x="0px" y="0px"
	 viewBox="0 0 383.942 383.942" style="enable-background:new 0 0 383.942 383.942;" xml:space="preserve">
<path style="fill:#00BFA5;" d="M211.227,180.99l-39.6,39.04l38.88,38.4l-32.32,31.92l-39.04-38.48l-32.64,32.16l52.16,51.52
	l-33.2,32.8l-84.72-83.68l137.6-135.84c3.84,6.4,8.48,12.4,14.08,17.92C198.187,172.43,204.507,177.15,211.227,180.99z"/>
<path style="fill:#FF5252;" d="M318.587,42.11c34.88,34.48,34.8,90.24,0,124.64c-29.04,28.72-73.2,33.52-107.36,14.24
	c-6.72-3.84-13.04-8.56-18.8-14.24c-5.6-5.52-10.24-11.52-14.08-17.92c-19.84-33.84-15.12-77.76,14.16-106.64
	C227.307,7.79,283.787,7.71,318.587,42.11z M281.707,130.35c14.48-14.32,14.48-37.52,0-51.76c-14.48-14.32-37.92-14.32-52.4,0
	c-14.48,14.24-14.48,37.44,0,51.76S267.307,144.67,281.707,130.35z"/>
<g>
	<path style="fill:#004D40;" d="M254.595,208.118c27.232,0,54.232-10.424,74.472-30.4c19.928-19.688,30.904-45.872,30.904-73.736
		c-0.008-27.84-10.984-54-30.904-73.672c-40.944-40.448-107.608-40.4-148.616,0.064c-30.688,30.328-39.08,75.88-22.336,114.768
		L28.731,272.918c-3.048,3-4.76,7.104-4.76,11.384s1.712,8.376,4.76,11.384l84.696,83.64c3.12,3.08,7.176,4.616,11.24,4.616
		c4.064,0,8.128-1.536,11.24-4.616l33.264-32.832c3.04-3,4.76-7.104,4.76-11.384s-1.712-8.384-4.76-11.384l-40.624-40.128
		l9.816-9.688l27.816,27.464c6.232,6.16,16.256,6.16,22.48,0.008l32.36-31.928c3.048-3.008,4.768-7.104,4.768-11.384
		c0-4.28-1.712-8.384-4.76-11.384l-27.36-27.016l20.072-19.824C226.843,205.334,240.739,208.118,254.595,208.118z M177.419,267.494
		l-27.8-27.448c-1.2-1.184-2.608-2.192-4.12-2.944c-6.136-3.064-13.528-1.888-18.4,2.928l-32.576,32.168
		c-3.048,3-4.76,7.104-4.76,11.384s1.712,8.376,4.76,11.384l40.624,40.128l-10.496,10.352l-61.92-61.16L175.675,172.75
		c1.512,1.704,3.088,3.352,4.704,4.952c1.704,1.68,3.464,3.304,5.272,4.864l-26.016,25.696c-3.048,3.008-4.76,7.104-4.76,11.384
		s1.712,8.376,4.76,11.384l27.352,27.008L177.419,267.494z M191.283,140.206c-16.456-28.232-11.68-64.024,11.656-87.08
		c14.312-14.128,33.104-21.192,51.88-21.192c18.752,0,37.496,7.04,51.76,21.128c13.792,13.616,21.384,31.688,21.392,50.912
		c0,19.24-7.592,37.336-21.392,50.968c-23.352,23.056-59.624,27.848-88.224,11.664c-5.672-3.208-10.888-7.144-15.504-11.696
		C198.483,150.614,194.595,145.662,191.283,140.206z"/>
	<path style="fill:#004D40;" d="M292.203,141.31c10.088-9.96,15.624-23.208,15.624-37.312c-0.008-14.088-5.56-27.312-15.624-37.232
		c-20.664-20.416-54.272-20.4-74.92,0.008c-10.056,9.944-15.592,23.176-15.592,37.264s5.536,27.32,15.6,37.272
		c10.336,10.2,23.896,15.296,37.464,15.296C268.323,156.614,281.883,151.51,292.203,141.31z M239.787,118.558
		c-3.928-3.888-6.096-9.04-6.096-14.512s2.168-10.624,6.088-14.504c4.128-4.08,9.544-6.112,14.968-6.112
		c5.424,0,10.848,2.04,14.984,6.128c3.928,3.872,6.096,9.008,6.104,14.472c0,5.472-2.168,10.632-6.112,14.528
		C261.459,126.702,248.035,126.694,239.787,118.558z"/>
</g>
<g>
</g>
<g>
</g>
<g>
</g>
<g>
</g>
<g>
</g>
<g>
</g>
<g>
</g>
<g>
</g>
<g>
</g>
<g>
</g>
<g>
</g>
<g>
</g>
<g>
</g>
<g>
</g>
<g>
</g>
</svg>
