<svg id="Layer_1" enable-background="new 0 0 256 256" height="512" viewBox="0 0 256 256" width="512" xmlns="http://www.w3.org/2000/svg"><g><g><ellipse cx="182.034" cy="106.507" fill="#fcc24c" rx="26.919" ry="26.919" transform="matrix(.16 -.987 .987 .16 47.744 269.13)"/></g><g><ellipse cx="182.034" cy="30.919" fill="#526faa" rx="26.919" ry="26.919" transform="matrix(.16 -.987 .987 .16 122.356 205.65)"/></g><g><ellipse cx="107.157" cy="30.919" fill="#526faa" rx="26.919" ry="26.919" transform="matrix(.254 -.967 .967 .254 49.992 126.683)"/></g><g><ellipse cx="107.157" cy="106.507" fill="#fcc24c" rx="26.919" ry="26.919" transform="matrix(.254 -.967 .967 .254 -23.108 183.04)"/></g><g><ellipse cx="107.157" cy="182.095" fill="#526faa" rx="26.919" ry="26.919" transform="matrix(.254 -.967 .967 .254 -96.209 239.396)"/></g><g><ellipse cx="32.28" cy="182.095" fill="#fcc24c" rx="26.919" ry="26.919" transform="matrix(.171 -.985 .985 .171 -152.653 182.696)"/></g><g><ellipse cx="32.28" cy="106.507" fill="#526faa" rx="26.919" ry="26.919" transform="matrix(.171 -.985 .985 .171 -78.183 120.06)"/></g><g><ellipse cx="32.28" cy="30.919" fill="#526faa" rx="26.919" ry="26.919" transform="matrix(.171 -.985 .985 .171 -3.712 57.424)"/></g><g><path d="m32.28 4c-1.015 0-2.015.061-3 .17 13.454 1.493 23.919 12.896 23.919 26.748s-10.465 25.256-23.919 26.748c.985.109 1.985.17 3 .17 14.867 0 26.919-12.052 26.919-26.919 0-14.865-12.052-26.917-26.919-26.917z" fill="#34518c"/></g><g><path d="m32.28 57.837c1.015 0 2.014-.061 3-.17-13.454-1.493-23.919-12.896-23.919-26.748s10.465-25.256 23.919-26.748c-.985-.11-1.985-.171-3-.171-14.867 0-26.918 12.052-26.918 26.919 0 14.866 12.051 26.918 26.918 26.918z" fill="#708dc8"/></g><g><path d="m32.28 79.588c-1.015 0-2.015.061-3 .17 13.454 1.493 23.919 12.896 23.919 26.748s-10.465 25.256-23.919 26.748c.985.109 1.985.17 3 .17 14.867 0 26.919-12.052 26.919-26.919 0-14.865-12.052-26.917-26.919-26.917z" fill="#34518c"/></g><g><path d="m32.28 133.426c1.015 0 2.014-.061 3-.17-13.454-1.493-23.919-12.896-23.919-26.748s10.465-25.256 23.919-26.748c-.986-.109-1.985-.17-3-.17-14.867 0-26.919 12.052-26.919 26.919.001 14.864 12.052 26.917 26.919 26.917z" fill="#708dc8"/></g><g><path d="m32.28 155.176c-1.015 0-2.015.061-3 .171 13.454 1.493 23.919 12.896 23.919 26.748s-10.465 25.256-23.919 26.748c.985.109 1.985.171 3 .171 14.867 0 26.919-12.052 26.919-26.919s-12.052-26.919-26.919-26.919z" fill="#dea42e"/></g><g><path d="m32.28 209.014c1.015 0 2.014-.061 3-.171-13.454-1.493-23.919-12.896-23.919-26.748s10.465-25.256 23.919-26.748c-.986-.109-1.985-.171-3-.171-14.867 0-26.919 12.052-26.919 26.919.001 14.867 12.052 26.919 26.919 26.919z" fill="#fce06a"/></g><g><path d="m107.157 155.176c-1.015 0-2.014.061-3 .171 13.454 1.493 23.919 12.896 23.919 26.748s-10.465 25.256-23.919 26.748c.986.109 1.985.171 3 .171 14.867 0 26.919-12.052 26.919-26.919s-12.052-26.919-26.919-26.919z" fill="#34518c"/></g><g><path d="m107.157 209.014c1.015 0 2.015-.061 3-.171-13.454-1.493-23.919-12.896-23.919-26.748s10.465-25.256 23.919-26.748c-.985-.109-1.985-.171-3-.171-14.867 0-26.919 12.052-26.919 26.919s12.052 26.919 26.919 26.919z" fill="#708dc8"/></g><g><path d="m107.157 79.588c-1.015 0-2.014.061-3 .17 13.454 1.493 23.919 12.896 23.919 26.748s-10.465 25.256-23.919 26.748c.986.109 1.985.17 3 .17 14.867 0 26.919-12.052 26.919-26.919 0-14.865-12.052-26.917-26.919-26.917z" fill="#dea42e"/></g><g><path d="m107.157 133.426c1.015 0 2.015-.061 3-.17-13.454-1.493-23.919-12.896-23.919-26.748s10.465-25.256 23.919-26.748c-.985-.109-1.985-.17-3-.17-14.867 0-26.919 12.052-26.919 26.919 0 14.864 12.052 26.917 26.919 26.917z" fill="#fce06a"/></g><g><path d="m107.157 4c-1.015 0-2.014.061-3 .17 13.454 1.493 23.919 12.896 23.919 26.748s-10.465 25.256-23.919 26.748c.986.109 1.985.17 3 .17 14.867 0 26.919-12.052 26.919-26.919 0-14.865-12.052-26.917-26.919-26.917z" fill="#34518c"/></g><g><path d="m107.157 57.837c1.015 0 2.015-.061 3-.17-13.454-1.493-23.919-12.896-23.919-26.748s10.465-25.256 23.919-26.748c-.985-.109-1.985-.17-3-.17-14.867-.001-26.919 12.051-26.919 26.918 0 14.866 12.052 26.918 26.919 26.918z" fill="#708dc8"/></g><g><path d="m182.034 4c-1.015 0-2.014.061-3 .17 13.454 1.493 23.919 12.896 23.919 26.748s-10.465 25.256-23.919 26.748c.986.109 1.985.17 3 .17 14.867 0 26.919-12.052 26.919-26.919 0-14.865-12.052-26.917-26.919-26.917z" fill="#34518c"/></g><g><path d="m182.034 57.837c1.015 0 2.015-.061 3-.17-13.454-1.493-23.919-12.896-23.919-26.748s10.465-25.256 23.919-26.748c-.985-.109-1.985-.17-3-.17-14.867 0-26.919 12.052-26.919 26.919 0 14.865 12.052 26.917 26.919 26.917z" fill="#708dc8"/></g><g><path d="m182.034 79.588c-1.015 0-2.014.061-3 .17 13.454 1.493 23.919 12.896 23.919 26.748s-10.465 25.256-23.919 26.748c.986.109 1.985.17 3 .17 14.867 0 26.919-12.052 26.919-26.919 0-14.865-12.052-26.917-26.919-26.917z" fill="#dea42e"/></g><g><path d="m182.034 133.426c1.015 0 2.015-.061 3-.17-13.454-1.493-23.919-12.896-23.919-26.748s10.465-25.256 23.919-26.748c-.985-.109-1.985-.17-3-.17-14.867 0-26.919 12.052-26.919 26.919 0 14.864 12.052 26.917 26.919 26.917z" fill="#fce06a"/></g><g><path d="m32.28 59.837c-15.946 0-28.919-12.973-28.919-28.919s12.973-28.918 28.919-28.918 28.919 12.973 28.919 28.919-12.972 28.918-28.919 28.918zm0-53.837c-13.74 0-24.919 11.178-24.919 24.919 0 13.74 11.179 24.919 24.919 24.919s24.919-11.179 24.919-24.919c0-13.741-11.179-24.919-24.919-24.919z" fill="#690589"/></g><g><path d="m107.157 59.837c-15.946 0-28.919-12.973-28.919-28.919s12.973-28.918 28.919-28.918 28.919 12.973 28.919 28.919-12.972 28.918-28.919 28.918zm0-53.837c-13.74 0-24.919 11.178-24.919 24.919 0 13.74 11.179 24.919 24.919 24.919s24.919-11.179 24.919-24.919c0-13.741-11.179-24.919-24.919-24.919z" fill="#690589"/></g><g><path d="m182.034 59.837c-15.946 0-28.919-12.973-28.919-28.919s12.973-28.918 28.919-28.918 28.919 12.973 28.919 28.919-12.973 28.918-28.919 28.918zm0-53.837c-13.74 0-24.919 11.178-24.919 24.919 0 13.74 11.179 24.919 24.919 24.919s24.919-11.179 24.919-24.919c0-13.741-11.179-24.919-24.919-24.919z" fill="#690589"/></g><g><path d="m32.28 135.426c-15.946 0-28.919-12.973-28.919-28.919s12.973-28.919 28.919-28.919 28.919 12.973 28.919 28.919-12.972 28.919-28.919 28.919zm0-53.838c-13.74 0-24.919 11.179-24.919 24.919s11.179 24.919 24.919 24.919 24.919-11.179 24.919-24.919-11.179-24.919-24.919-24.919z" fill="#690589"/></g><g><path d="m12.94 110.297c-1.104 0-2-.896-2-2 0-4.526 1.02-8.864 3.031-12.893.492-.988 1.692-1.391 2.683-.896.988.493 1.39 1.694.896 2.683-1.731 3.47-2.609 7.207-2.609 11.107-.001 1.104-.896 1.999-2.001 1.999z" fill="#690589"/></g><g><path d="m107.157 135.426c-15.946 0-28.919-12.973-28.919-28.919s12.973-28.919 28.919-28.919 28.919 12.973 28.919 28.919-12.972 28.919-28.919 28.919zm0-53.838c-13.74 0-24.919 11.179-24.919 24.919s11.179 24.919 24.919 24.919 24.919-11.179 24.919-24.919-11.179-24.919-24.919-24.919z" fill="#690589"/></g><g><path d="m182.034 135.426c-15.946 0-28.919-12.973-28.919-28.919s12.973-28.919 28.919-28.919 28.919 12.973 28.919 28.919-12.973 28.919-28.919 28.919zm0-53.838c-13.74 0-24.919 11.179-24.919 24.919s11.179 24.919 24.919 24.919 24.919-11.179 24.919-24.919-11.179-24.919-24.919-24.919z" fill="#690589"/></g><g><path d="m32.28 211.014c-15.946 0-28.919-12.973-28.919-28.919s12.973-28.918 28.919-28.918 28.919 12.973 28.919 28.918-12.972 28.919-28.919 28.919zm0-53.838c-13.74 0-24.919 11.178-24.919 24.918s11.179 24.919 24.919 24.919 24.919-11.179 24.919-24.919c0-13.739-11.179-24.918-24.919-24.918z" fill="#690589"/></g><g><path d="m107.157 211.014c-15.946 0-28.919-12.973-28.919-28.919s12.973-28.918 28.919-28.918 28.919 12.973 28.919 28.918-12.972 28.919-28.919 28.919zm0-53.838c-13.74 0-24.919 11.178-24.919 24.918s11.179 24.919 24.919 24.919 24.919-11.179 24.919-24.919c0-13.739-11.179-24.918-24.919-24.918z" fill="#690589"/></g><g><path d="m240.838 134.509c-5.412 0-9.8 4.388-9.8 9.8v-7.94c0-5.412-4.388-9.8-9.8-9.8s-9.8 4.387-9.8 9.8v-4.566c0-5.413-4.388-9.8-9.8-9.8s-9.8 4.387-9.8 9.8v-31.339c0-5.413-4.388-9.8-9.8-9.8-5.413 0-9.8 4.388-9.8 9.8v49.84 12.837c0-5.424-4.396-9.82-9.82-9.82s-9.82 4.396-9.82 9.82v34.742c0 10.847 8.793 19.641 19.64 19.641v1.31c0 7.236 5.866 13.103 13.103 13.103v20.063h54.09v-20.185c6.41-.828 11.207-6.318 11.207-12.982v-73.824-.701c0-5.411-4.387-9.799-9.8-9.799z" fill="#ff9f70"/></g><g><g><path d="m241.882 134.564c-1.811-.192-3.526.124-5.043.804 3.416 1.531 5.8 4.955 5.8 8.94v.701 73.824c0 6.124-4.05 11.256-9.68 12.691-.893.227-1.527 1.013-1.527 1.935v18.541h8v-20.185c6.41-.828 11.207-6.318 11.207-12.982v-73.824-.359c-.001-5.073-3.712-9.552-8.757-10.086z" fill="#e18152"/></g></g><g><path d="m190.522 231.639c-5.911-1.267-10.344-6.517-10.344-12.806 0-.71-.548-1.304-1.256-1.349-10.262-.648-18.384-9.176-18.384-19.601v-34.743c0-4.01 2.406-7.452 5.85-8.978-1.565-.693-3.341-.999-5.212-.765-4.96.621-8.578 5.03-8.578 10.029v34.456c0 10.847 8.793 19.641 19.64 19.641v1.31c0 7.237 5.866 13.103 13.103 13.103v20.064h7.94v-18.845c0-.694-.523-1.276-1.213-1.35z" fill="#ffbd8e"/></g><g><path d="m172.238 192.88c-1.104 0-2-.896-2-2v-27.741c0-1.105.896-2 2-2 1.105 0 2 .895 2 2v27.741c0 1.105-.895 2-2 2z" fill="#690589"/></g><g><path d="m211.439 160.243c-1.105 0-2-.896-2-2v-26.44c0-4.301-3.499-7.8-7.801-7.8-4.301 0-7.8 3.499-7.8 7.8v26.44c0 1.104-.896 2-2 2-1.105 0-2-.896-2-2v-26.44c0-6.507 5.293-11.8 11.8-11.8s11.801 5.293 11.801 11.8v26.44c0 1.104-.896 2-2 2z" fill="#690589"/></g><g><path d="m231.038 160.243c-1.105 0-2-.896-2-2v-21.874c0-4.301-3.499-7.8-7.8-7.8s-7.8 3.499-7.8 7.8v21.874c0 1.104-.896 2-2 2-1.105 0-2-.896-2-2v-21.874c0-6.507 5.293-11.8 11.8-11.8s11.8 5.294 11.8 11.8v21.874c0 1.104-.895 2-2 2z" fill="#690589"/></g><g><path d="m239.431 254h-54.09c-1.105 0-2-.895-2-2v-18.196c-7.191-.956-12.802-6.993-13.091-14.372-11.005-1.007-19.652-10.288-19.652-21.55v-34.743c0-6.518 5.303-11.82 11.82-11.82 2.996 0 5.734 1.12 7.82 2.964v-53.82c0-6.507 5.293-11.8 11.8-11.8s11.8 5.293 11.8 11.8v57.779c0 1.104-.896 2-2 2-1.105 0-2-.896-2-2v-57.779c0-4.301-3.499-7.8-7.8-7.8s-7.8 3.499-7.8 7.8v62.676c0 1.104-.895 2-2 2-1.104 0-2-.896-2-2 0-4.312-3.508-7.82-7.82-7.82s-7.82 3.508-7.82 7.82v34.743c0 9.727 7.913 17.641 17.641 17.641 1.105 0 2 .895 2 2v1.31c0 6.122 4.98 11.103 11.103 11.103 1.104 0 2 .896 2 2v18.064h50.09v-18.185c0-1.005.746-1.854 1.744-1.983 5.483-.708 9.464-5.334 9.464-10.999v-74.524c0-4.301-3.499-7.8-7.801-7.8-4.301 0-7.8 3.499-7.8 7.8v13.934c0 1.104-.896 2-2 2-1.105 0-2-.896-2-2v-13.934c0-6.506 5.293-11.8 11.8-11.8s11.801 5.293 11.801 11.8v74.524c0 6.969-4.709 12.97-11.208 14.632v18.535c-.001 1.105-.897 2-2.001 2z" fill="#690589"/></g></g></svg>